<svg xmlns="http://www.w3.org/2000/svg"  viewBox="0 0 256 256" width="64px" height="64px"><path fill="#E59A5C" d="M168.753,245.483H87.247c-5.115,0-9.405-3.86-9.944-8.947L58.25,56.695h139.5l-19.052,179.842 C178.159,241.623,173.868,245.483,168.753,245.483z"/><path fill="#C68254" d="M177.75,56.695l-19.052,179.842c-0.539,5.087-4.829,8.947-9.944,8.947h20 c5.115,0,9.406-3.86,9.944-8.947L197.75,56.695H177.75z"/><path fill="#725246" d="M209.75,34.147H46.25c-1.105,0-2,0.895-2,2v18.547c0,1.105,0.895,2,2,2h163.5c1.105,0,2-0.895,2-2 V36.147C211.75,35.043,210.855,34.147,209.75,34.147z"/><path fill="#5E3E2F" d="M197.75,34.147H58.25l3.295-19.465c0.407-2.405,2.49-4.165,4.93-4.165h123.05 c2.439,0,4.523,1.76,4.93,4.165L197.75,34.147z"/><g><polygon fill="#FEDBB0" points="184.062,185.9 193.12,100.395 62.88,100.395 71.938,185.9"/></g><g><polygon fill="#E8C197" points="173.12,100.395 164.062,185.9 184.062,185.9 193.12,100.395"/></g><g><circle cx="128" cy="143.147" r="33.5" fill="#A86654"/><path fill="#422618" d="M126.387,147.16c-1.334-7.772-2.81-16.448-0.089-25C118.816,123.349,113,132.275,113,143.115 c0,11.077,6.073,20.153,13.791,21.02C128.518,159.62,127.523,153.774,126.387,147.16z"/><path fill="#422618" d="M130.001,122.214c-2.94,8.008-1.53,16.292-0.151,24.327c1.072,6.246,2.092,12.228,0.72,17.353 c7.059-1.715,12.43-10.362,12.43-20.779C143,132.42,137.339,123.59,130.001,122.214z"/></g><g><path fill="#422618" d="M168.754,247.483H87.246c-6.155,0-11.285-4.616-11.933-10.736L56.451,58.695H46.25c-2.206,0-4-1.794-4-4 V36.147c0-2.206,1.794-4,4-4h10.311l3.013-17.799c0.572-3.379,3.475-5.832,6.901-5.832h123.051c3.427,0,6.329,2.453,6.901,5.832 l3.013,17.799h10.311c2.206,0,4,1.794,4,4v18.547c0,2.206-1.794,4-4,4h-10.201l-18.862,178.052 C180.039,242.867,174.909,247.483,168.754,247.483z M46.25,36.147v18.547h12c1.023,0,1.881,0.772,1.989,1.79l19.053,179.841 c0.432,4.081,3.851,7.158,7.954,7.158h81.508c4.104,0,7.522-3.077,7.954-7.157l19.053-179.841c0.108-1.018,0.966-1.79,1.989-1.79 h12V36.147h-12c-0.976,0-1.81-0.704-1.972-1.666l-3.295-19.465c-0.245-1.448-1.489-2.5-2.958-2.5H66.475 c-1.469,0-2.713,1.051-2.958,2.5l-3.295,19.465c-0.162,0.962-0.996,1.666-1.972,1.666H46.25z"/></g></svg>