<svg xmlns="http://www.w3.org/2000/svg"  viewBox="0 0 64 64" width="64px" height="64px"><g data-name="12-siberian husky"><ellipse cx="40" cy="29" fill="#418beb" rx="2" ry="3"/><ellipse cx="24" cy="29" fill="#418beb" rx="2" ry="3"/><path fill="#eef2fa" d="M17,4l4.98,8.97c-2.77,2.63-5.7,6.41-7.96,8.69A13.959,13.959,0,0,0,13,22.81V13Z"/><path fill="#414952" d="M19.65,2.08l5.18,8.63a15.865,15.865,0,0,0-2.85,2.26L17,4l-4,9L15.58,2.69a2.227,2.227,0,0,1,4.07-.61Z"/><path fill="#414952" d="M48.42,2.69,51,13,47,4l-4.98,8.97a15.865,15.865,0,0,0-2.85-2.26l5.18-8.63a2.227,2.227,0,0,1,4.07.61Z"/><path fill="#23272b" d="M20.8,61.6a4.055,4.055,0,0,0,2.21,1.32L23,63H12L9,54l1.96-3.91a2.34,2.34,0,0,0,.24.31Z"/><path fill="#23272b" d="M43.2,61.6l9.6-11.2a2.34,2.34,0,0,0,.24-.31L55,54l-3,9H41l-.01-.08A4.055,4.055,0,0,0,43.2,61.6Z"/><path fill="#eef2fa" d="M44.94,49.61a1.766,1.766,0,0,1-.66,1.87L32,61,19.72,51.48a1.766,1.766,0,0,1-.66-1.87L20,47l.21-.32c2.74,1.78,5.67,3.16,8.32,3.3A3.969,3.969,0,0,0,32,52a4.025,4.025,0,0,0,2.83-1.17,3.792,3.792,0,0,0,.64-.85c2.65-.14,5.58-1.52,8.32-3.3L44,47Z"/><path fill="#e68d79" d="M32,46.1V52a4.013,4.013,0,0,1-4-4V47l.01-.08A8.55,8.55,0,0,0,32,46.04Z"/><path fill="#e68d79" d="M36,47v1a3.908,3.908,0,0,1-.53,1.98,3.792,3.792,0,0,1-.64.85A4.025,4.025,0,0,1,32,52V46.1a8.609,8.609,0,0,0,4,.88Z"/><path fill="#333940" d="M36,39v1.48a2.023,2.023,0,0,1-1.51,1.96l-2,.5a2.031,2.031,0,0,1-.98,0l-2-.5A2.023,2.023,0,0,1,28,40.48V38.95a2.037,2.037,0,0,1,.8-1.62A5.775,5.775,0,0,1,32,36a5.775,5.775,0,0,1,3.2,1.33,2.037,2.037,0,0,1,.8,1.62Z"/><path fill="#23272b" d="M34.49,40.44l-2,.5a2.031,2.031,0,0,1-.98,0l-2-.5a2.018,2.018,0,0,1-1.487-1.687,1.856,1.856,0,0,0-.023.2v1.53a2.023,2.023,0,0,0,1.51,1.96l2,.5a2.031,2.031,0,0,0,.98,0l2-.5A2.023,2.023,0,0,0,36,40.48V38.95a1.856,1.856,0,0,0-.023-.2A2.018,2.018,0,0,1,34.49,40.44Z"/><path fill="#fafcff" d="M36,38v.95a2.037,2.037,0,0,0-.8-1.62A5.775,5.775,0,0,0,32,36a5.775,5.775,0,0,0-3.2,1.33,2.037,2.037,0,0,0-.8,1.62V38l1.57-7.05A2.484,2.484,0,0,1,32,29a2.6,2.6,0,0,1,.84.14,2.512,2.512,0,0,1,1.59,1.81Z"/><path fill="#eef2fa" d="M49.54,29.89,46,29l-2-3-2,3c0,1.66-.9,3-2,3s-2-1.34-2-3l-4.6-1.53L32,27l-6,2c0,1.66-.9,3-2,3s-2-1.34-2-3l-2-3-2,3-3.54.89a5.887,5.887,0,0,0-2.7,9.91c.07.07.15.15.23.22a56.223,56.223,0,0,0,8.22,6.66c2.74,1.78,5.67,3.16,8.32,3.3A3.935,3.935,0,0,1,28,48V47l.01-.08A8.55,8.55,0,0,0,32,46.04v.06a8.609,8.609,0,0,0,4,.88V48a3.908,3.908,0,0,1-.53,1.98c2.65-.14,5.58-1.52,8.32-3.3a56.223,56.223,0,0,0,8.22-6.66c.08-.07.16-.15.23-.22a5.887,5.887,0,0,0-2.7-9.91ZM36,38.95v1.53a2.023,2.023,0,0,1-1.51,1.96l-2,.5a2.031,2.031,0,0,1-.98,0l-2-.5A2.023,2.023,0,0,1,28,40.48V38l1.57-7.05A2.484,2.484,0,0,1,32,29a2.6,2.6,0,0,1,.84.14,2.512,2.512,0,0,1,1.59,1.81L36,38Z"/><path fill="#dce1eb" d="M29,21.15v1.82a2.009,2.009,0,0,1-2.17,2.02c-2.05-.17-4.83-.65-4.83-1.93A4.334,4.334,0,0,1,26,19a5.084,5.084,0,0,1,1.71.28A1.958,1.958,0,0,1,29,21.15Z"/><path fill="#dce1eb" d="M38,19a4.334,4.334,0,0,1,4,4.06c0,1.28-2.78,1.76-4.83,1.93A2.009,2.009,0,0,1,35,22.97V21.15a1.958,1.958,0,0,1,1.29-1.87A5.084,5.084,0,0,1,38,19Z"/><path fill="#eef2fa" d="M51,13v9.81a13.959,13.959,0,0,0-1.02-1.15c-2.26-2.28-5.19-6.06-7.96-8.69L47,4Z"/><path fill="#333940" d="M10.96,50.09A4.994,4.994,0,0,1,10,47.15V45.18a4.987,4.987,0,0,1,.53-2.24l1.46-2.92a56.223,56.223,0,0,0,8.22,6.66L20,47l-.94,2.61a1.766,1.766,0,0,0,.66,1.87L32,61v2H23.84a4.578,4.578,0,0,1-.83-.08A4.055,4.055,0,0,1,20.8,61.6L11.2,50.4A2.34,2.34,0,0,1,10.96,50.09Z"/><path fill="#333940" d="M53.04,50.09a2.34,2.34,0,0,1-.24.31L43.2,61.6a4.055,4.055,0,0,1-2.21,1.32,4.578,4.578,0,0,1-.83.08H32V61l12.28-9.52a1.766,1.766,0,0,0,.66-1.87L44,47l-.21-.32a56.223,56.223,0,0,0,8.22-6.66l1.46,2.92A4.987,4.987,0,0,1,54,45.18v1.97A4.994,4.994,0,0,1,53.04,50.09Z"/><path fill="#333940" d="M22,23.06c0,1.28,2.78,1.76,4.83,1.93A2.009,2.009,0,0,0,29,22.97V21.15a1.958,1.958,0,0,0-1.29-1.87A5.084,5.084,0,0,0,26,19,4.334,4.334,0,0,0,22,23.06Zm15.17,1.93c2.05-.17,4.83-.65,4.83-1.93A4.334,4.334,0,0,0,38,19a5.084,5.084,0,0,0-1.71.28A1.958,1.958,0,0,0,35,21.15v1.82A2.009,2.009,0,0,0,37.17,24.99ZM51,22.81a13.97,13.97,0,0,1,3,8.67V35.6a5.875,5.875,0,0,0-4.46-5.71L46,29l-2-3-2,3c0-1.66-.9-3-2-3s-2,1.34-2,3l-4.6-1.53L32,27l-6,2c0-1.66-.9-3-2-3s-2,1.34-2,3l-2-3-2,3-3.54.89A5.875,5.875,0,0,0,10,35.6V31.48a13.873,13.873,0,0,1,4.02-9.82c2.26-2.28,5.19-6.06,7.96-8.69a15.865,15.865,0,0,1,2.85-2.26A4.431,4.431,0,0,1,27,10H37a4.431,4.431,0,0,1,2.17.71,15.865,15.865,0,0,1,2.85,2.26c2.77,2.63,5.7,6.41,7.96,8.69A13.959,13.959,0,0,1,51,22.81Z"/><path fill="#eef2fa" d="M38.88,31.49l-.13.14a9.977,9.977,0,0,0-13.5,0l-.13-.14A3.591,3.591,0,0,0,26,29l6-2,1.4.47L38,29A3.591,3.591,0,0,0,38.88,31.49Z"/><path fill="#eef2fa" d="M22,38.94s2,5.07,4,7.1a3.076,3.076,0,0,0,2.01.88L28,47v1a3.935,3.935,0,0,0,.53,1.98c-2.65-.14-5.58-1.52-8.32-3.3a56.223,56.223,0,0,1-8.22-6.66c-.08-.07-.16-.15-.23-.22a5.887,5.887,0,0,1,2.7-9.91L18,29l2-3,2,3c0,1.66.9,3,2,3a1.6,1.6,0,0,0,1.12-.51l.13.14A9.983,9.983,0,0,0,22,38.94Z"/><path fill="#eef2fa" d="M52.01,40.02a56.223,56.223,0,0,1-8.22,6.66c-2.74,1.78-5.67,3.16-8.32,3.3a3.792,3.792,0,0,1-.64.85A4.025,4.025,0,0,1,32,52V46.1a8.609,8.609,0,0,0,4,.88,3.175,3.175,0,0,0,2-.88c2-2.03,4-7.1,4-7.1a9.969,9.969,0,0,0-2.93-7.07c-.1-.1-.21-.2-.32-.3l.13-.14A1.6,1.6,0,0,0,40,32c1.1,0,2-1.34,2-3l2-3,2,3,3.54.89a5.887,5.887,0,0,1,2.7,9.91C52.17,39.87,52.09,39.95,52.01,40.02Z"/><path fill="#e68d79" d="M32,46.1V52a4.013,4.013,0,0,0,4-4V47l-.01-.08A8.55,8.55,0,0,1,32,46.04Z"/><path fill="#c76f5f" d="M32,48.04v-2a8.55,8.55,0,0,1-3.99.88L28,47v1a3.946,3.946,0,0,0,.114.922A8.7,8.7,0,0,0,32,48.04Z"/><path fill="#414952" d="M35.2,37.33A5.775,5.775,0,0,0,32,36a5.775,5.775,0,0,0-3.2,1.33,2.037,2.037,0,0,0-.8,1.62v1a2.037,2.037,0,0,1,.8-1.62A5.775,5.775,0,0,1,32,37a5.775,5.775,0,0,1,3.2,1.33,2.037,2.037,0,0,1,.8,1.62v-1A2.037,2.037,0,0,0,35.2,37.33Z"/><path fill="#f7faff" d="M27.71,19.28A5.084,5.084,0,0,0,26,19a4.334,4.334,0,0,0-4,4.06.837.837,0,0,0,.077.351A4.368,4.368,0,0,1,26,20a5.084,5.084,0,0,1,1.71.28A1.958,1.958,0,0,1,29,22.15v-1A1.958,1.958,0,0,0,27.71,19.28Z"/><path fill="#f7faff" d="M36.29,20.28A5.084,5.084,0,0,1,38,20a4.368,4.368,0,0,1,3.923,3.411A.837.837,0,0,0,42,23.06,4.334,4.334,0,0,0,38,19a5.084,5.084,0,0,0-1.71.28A1.958,1.958,0,0,0,35,21.15v1A1.958,1.958,0,0,1,36.29,20.28Z"/><path fill="#eef2fa" d="M32,44.1v-.06a11.934,11.934,0,0,1-4.788.88,4.076,4.076,0,0,1-2.412-.88,8.31,8.31,0,0,1-.673-.651A13.355,13.355,0,0,0,26,46.04a3.076,3.076,0,0,0,2.01.88A8.55,8.55,0,0,0,32,46.04V44.1Z"/><path fill="#eef2fa" d="M39.2,44.1a4.207,4.207,0,0,1-2.4.88A12.018,12.018,0,0,1,32,44.1v2a8.609,8.609,0,0,0,4,.88,3.175,3.175,0,0,0,2-.88,13.355,13.355,0,0,0,1.873-2.651A8.31,8.31,0,0,1,39.2,44.1Z"/><path fill="#c76f5f" d="M36,47l-.01-.08A8.55,8.55,0,0,1,32,46.04v2a8.7,8.7,0,0,0,3.886.882A3.946,3.946,0,0,0,36,48Z"/><path fill="#dce1eb" d="M35.977,40.753A2.018,2.018,0,0,1,34.49,42.44L33,42.812l-.51.128a2.031,2.031,0,0,1-.98,0L31,42.812l-1.49-.372a2.018,2.018,0,0,1-1.487-1.687,1.856,1.856,0,0,0-.023.2v1.53a2.023,2.023,0,0,0,1.51,1.96h0A1.967,1.967,0,0,1,31,46.348v.1a10.07,10.07,0,0,0,1-.41v.06a9.942,9.942,0,0,0,1,.409v-.161a1.967,1.967,0,0,1,1.49-1.908h0A2.023,2.023,0,0,0,36,42.48V40.95A1.856,1.856,0,0,0,35.977,40.753Z"/><path fill="#dce1eb" d="M44.615,42.256A2,2,0,0,1,42,40.353V39.02s-2,5.07-4,7.1A3.175,3.175,0,0,1,36,47h0l0,.02v1A3.935,3.935,0,0,1,35.47,50c2.65-.14,5.58-1.52,8.32-3.3a56.223,56.223,0,0,0,8.22-6.66c.08-.07.16-.15.23-.22a5.87,5.87,0,0,0,1.673-3.229C53.2,39.126,47.9,41.2,44.615,42.256Z"/><path fill="#dce1eb" d="M28,48V47l.01-.08A3.076,3.076,0,0,1,26,46.04c-1.873-1.9-3.746-6.468-3.976-7.04H22v1.333a2,2,0,0,1-2.615,1.9c-3.287-1.058-8.582-3.13-9.3-5.665A5.87,5.87,0,0,0,11.76,39.8c.07.07.15.15.23.22a56.223,56.223,0,0,0,8.22,6.66c2.74,1.78,5.67,3.16,8.32,3.3A3.935,3.935,0,0,1,28,48Z"/><path fill="#23272b" d="M21.061,8.357,18.65,4.137a1,1,0,0,0-1.576-.211L17,4l4.98,8.97a15.865,15.865,0,0,1,2.85-2.26l-.981-1.634-.157.078A2,2,0,0,1,21.061,8.357Z"/><path fill="#23272b" d="M45.35,4.137l-2.411,4.22a2,2,0,0,1-2.631.8l-.157-.078L39.17,10.71a15.865,15.865,0,0,1,2.85,2.26L47,4l-.074-.074A1,1,0,0,0,45.35,4.137Z"/><path fill="#cdd2e1" d="M13,13l2.866-4.3a1,1,0,0,1,1.781.239,8,8,0,0,1-1.275,7.438L13,20.714v2.1a13.959,13.959,0,0,1,1.02-1.15c2.26-2.28,5.19-6.06,7.96-8.69L17,4Z"/><path fill="#cdd2e1" d="M46.353,8.94A1,1,0,0,1,48.134,8.7L51,13,47,4l-4.98,8.97c2.77,2.63,5.7,6.41,7.96,8.69A13.959,13.959,0,0,1,51,22.81v-2.1l-3.372-4.336A8,8,0,0,1,46.353,8.94Z"/><path fill="#dce1eb" d="M14.7,54.488a1.99,1.99,0,0,0-.529,2.324L16.925,63H23l.01-.08A4.055,4.055,0,0,1,20.8,61.6Z"/><path fill="#dce1eb" d="M49.266,54.522,43.2,61.6a4.055,4.055,0,0,1-2.21,1.32L41,63h6l2.75-6.188A1.993,1.993,0,0,0,49.266,54.522Z"/><path fill="#cdd2e1" d="M19.06,49.61a1.623,1.623,0,0,0-.029.25A24.98,24.98,0,0,0,32,54a24.98,24.98,0,0,0,12.969-4.14,1.623,1.623,0,0,0-.029-.25L44,47l-.21-.32c-2.74,1.78-5.67,3.16-8.32,3.3a3.792,3.792,0,0,1-.64.85A4.025,4.025,0,0,1,32,52a3.969,3.969,0,0,1-3.47-2.02c-2.65-.14-5.58-1.52-8.32-3.3L20,47Z"/><path fill="#23272b" d="M15.252,47.121a34.175,34.175,0,0,0,3.779,2.739,1.623,1.623,0,0,1,.029-.25L20,47l.21-.32a56.223,56.223,0,0,1-8.22-6.66l-1.46,2.92A4.987,4.987,0,0,0,10,45.18v1.847a6.814,6.814,0,0,1,1.6-.694A3.972,3.972,0,0,1,15.252,47.121Z"/><path fill="#23272b" d="M53.47,42.94l-1.46-2.92a56.223,56.223,0,0,1-8.22,6.66L44,47l.94,2.61a1.623,1.623,0,0,1,.029.25,34.175,34.175,0,0,0,3.779-2.739,3.972,3.972,0,0,1,3.655-.788,6.814,6.814,0,0,1,1.6.694V45.18A4.987,4.987,0,0,0,53.47,42.94Z"/><path fill="#414952" d="M13.148,30.41a13.968,13.968,0,0,1,2.443-6.21,12.9,12.9,0,0,1,.881-1.095c1.952-2.172,4.482-5.772,6.874-8.276a14.008,14.008,0,0,1,2.462-2.153A3.588,3.588,0,0,1,27.682,12h8.636a3.588,3.588,0,0,1,1.874.676,14.008,14.008,0,0,1,2.462,2.153c2.392,2.5,4.922,6.1,6.874,8.276a12.9,12.9,0,0,1,.881,1.095,13.968,13.968,0,0,1,2.443,6.21A5.864,5.864,0,0,1,54,35.6V31.48a13.873,13.873,0,0,0-4.02-9.82c-2.26-2.28-5.19-6.06-7.96-8.69a15.865,15.865,0,0,0-2.85-2.26A4.431,4.431,0,0,0,37,10H27a4.431,4.431,0,0,0-2.17.71,15.865,15.865,0,0,0-2.85,2.26c-2.77,2.63-5.7,6.41-7.96,8.69A13.873,13.873,0,0,0,10,31.48V35.6A5.864,5.864,0,0,1,13.148,30.41Z"/><path fill="#eef2fa" d="M14.467,40.31A5.9,5.9,0,0,1,13,36.381V32.457a14.811,14.811,0,0,1,.148-2.047,5.8,5.8,0,0,0-3.061,6.161C10.49,38,12.34,39.275,14.467,40.31Z"/><path fill="#eef2fa" d="M50.852,30.41A14.811,14.811,0,0,1,51,32.457v3.924a5.9,5.9,0,0,1-1.49,3.96c2.13-1.034,3.987-2.312,4.4-3.738a5.808,5.808,0,0,0-3.056-6.193Z"/><ellipse cx="40.427" cy="28.208" fill="#f6fafd" rx=".413" ry=".574" transform="rotate(-45.02 40.427 28.208)"/><ellipse cx="23.427" cy="28.208" fill="#f6fafd" rx=".574" ry=".413" transform="rotate(-44.98 23.428 28.208)"/><ellipse cx="36.682" cy="14.708" fill="#f6fafd" rx=".825" ry="1.148" transform="rotate(-45.02 36.681 14.708)"/><ellipse cx="50.682" cy="48.708" fill="#f6fafd" rx=".825" ry="1.148" transform="rotate(-45.02 50.681 48.708)"/><ellipse cx="34.427" cy="14.208" fill="#f6fafd" rx=".413" ry=".574" transform="rotate(-45.02 34.427 14.208)"/><path d="M55.9,53.553l-1.7-3.4a5.991,5.991,0,0,0,.808-3V45.18a6.032,6.032,0,0,0-.634-2.683L53.22,40.2A6.9,6.9,0,0,0,54.979,36H55V31.48A14.852,14.852,0,0,0,52,22.5V13a1,1,0,0,0-.03-.243L49.392,2.444a3.227,3.227,0,0,0-5.9-.877L38.791,9.4A4.621,4.621,0,0,0,37,9H27a4.632,4.632,0,0,0-1.792.4l-4.7-7.836a3.227,3.227,0,0,0-5.9.877L12.03,12.757A1,1,0,0,0,12,13v9.5A14.852,14.852,0,0,0,9,31.48V36h.021a6.9,6.9,0,0,0,1.759,4.2L9.634,42.5A6.032,6.032,0,0,0,9,45.18v1.97a6.006,6.006,0,0,0,.807,3l-1.7,3.4a1,1,0,0,0-.053.763l3,9A1,1,0,0,0,12,64H23v-.078a4.989,4.989,0,0,0,.84.078H40.16a4.989,4.989,0,0,0,.84-.078V64H52a1,1,0,0,0,.948-.684l3-9A1,1,0,0,0,55.9,53.553ZM45.209,2.6a1.227,1.227,0,0,1,2.243.334L50,13.123v7.114c-.78-.836-1.628-1.809-2.515-2.828-1.4-1.61-2.82-3.239-4.218-4.631l4.051-7.293L45.57,4.514l-3.812,6.862c-.415-.357-.827-.683-1.234-.972ZM14.732,22.363c.555-.559,1.177-1.233,2.018-2.184l-1.5-1.325c-.485.55-.888,1-1.25,1.383V13.123L16.548,2.93A1.227,1.227,0,0,1,18.791,2.6L23.475,10.4c-.408.288-.82.614-1.235.971L18.431,4.516l-1.748.972,4.049,7.288c-1.381,1.375-2.78,2.98-4.161,4.568l1.51,1.312C20.892,15.425,24.742,11,27,11H37c2.259,0,6.142,4.463,8.977,7.722,1.175,1.352,2.287,2.629,3.291,3.641a12.821,12.821,0,0,1,3.7,8.364,6.86,6.86,0,0,0-3.18-1.812l-3.167-.791-1.785-2.679a1.039,1.039,0,0,0-1.664,0L42.4,26.6a3.181,3.181,0,0,0-1.34-1.334c1.124-.432,1.939-1.11,1.939-2.2A5.3,5.3,0,0,0,38,18a6.193,6.193,0,0,0-2.044.335A2.967,2.967,0,0,0,34,21.149v1.818a3.055,3.055,0,0,0,.982,2.245A2.994,2.994,0,0,0,37,26c.083,0,.166,0,.25-.011.274-.023.559-.051.848-.085a4.106,4.106,0,0,0-.924,1.767l-4.861-1.62a1,1,0,0,0-.632,0l-4.861,1.62A4.106,4.106,0,0,0,25.9,25.9c.289.034.574.062.848.085.084.007.167.011.25.011a2.994,2.994,0,0,0,2.021-.788A3.055,3.055,0,0,0,30,22.967V21.149a2.967,2.967,0,0,0-1.957-2.814A6.182,6.182,0,0,0,26,18a5.3,5.3,0,0,0-5,5.064c0,1.088.815,1.766,1.939,2.2A3.181,3.181,0,0,0,21.6,26.6l-.767-1.151a1.039,1.039,0,0,0-1.664,0l-1.785,2.679-3.167.791a6.86,6.86,0,0,0-3.18,1.812A12.821,12.821,0,0,1,14.732,22.363ZM41,29c0,1.221-.592,2-1,2s-1-.779-1-2,.592-2,1-2S41,27.779,41,29Zm-3.917-5a.973.973,0,0,1-.748-.257A1.035,1.035,0,0,1,36,22.967V21.149a.966.966,0,0,1,.617-.926A4.187,4.187,0,0,1,38,20a3.354,3.354,0,0,1,3.015,3C40.9,23.193,39.969,23.75,37.083,24ZM29,47.908a9.3,9.3,0,0,0,2-.4v3.312A3,3,0,0,1,29,48Zm4-.348a9.24,9.24,0,0,0,2,.4V48a3,3,0,0,1-2,2.816Zm-.759-5.59a.983.983,0,0,1-.482,0l-2-.5a1.012,1.012,0,0,1-.76-.988V38.947a1.027,1.027,0,0,1,.409-.822A4.663,4.663,0,0,1,32,37a4.663,4.663,0,0,1,2.591,1.125,1.027,1.027,0,0,1,.409.822v1.531a1.014,1.014,0,0,1-.759.988ZM32,35a5.406,5.406,0,0,0-2.459.678l1-4.51a1.493,1.493,0,0,1,2.914,0l1,4.508A5.418,5.418,0,0,0,32,35Zm-7-6c0,1.221-.592,2-1,2s-1-.779-1-2,.592-2,1-2S25,27.779,25,29Zm-2-5.936A3.332,3.332,0,0,1,26,20a4.176,4.176,0,0,1,1.382.223.965.965,0,0,1,.618.926v1.818a1.035,1.035,0,0,1-.335.772.97.97,0,0,1-.748.257C24.031,23.75,23.1,23.193,23,23.064ZM32,62H23.84a3,3,0,0,1-2.278-1.048l-5.8-6.766-1.518,1.3L19.825,62h-7.1L10.08,54.077,11.168,51.9l1.5,1.752,1.519-1.3-2.226-2.6A4,4,0,0,1,11,47.15V45.18a4.005,4.005,0,0,1,.423-1.788l.859-1.72a57.137,57.137,0,0,0,6.643,5.363L18.1,49.344a2.785,2.785,0,0,0,1.013,2.93l12.279,9.517a1,1,0,0,0,1.224,0l8-6.2-1.224-1.581L32,59.735,20.334,50.693A.781.781,0,0,1,20,49.945l.65-1.8a22.676,22.676,0,0,0,5.069,2.338l.572-1.917c-5.16-1.539-10.881-6.6-13.832-9.482a4.887,4.887,0,0,1,2.24-8.225l3.542-.885a1,1,0,0,0,.59-.415L20,27.8l1.025,1.537C21.153,31.415,22.405,33,24,33c1.492,0,2.692-1.384,2.946-3.261l2.831-.944a3.483,3.483,0,0,0-1.187,1.94l-1.567,7.048A1.052,1.052,0,0,0,27,38v2.478a3.011,3.011,0,0,0,2.271,2.927L31,43.841v1.547c-1.16.457-3.265.99-4.288-.048-1.832-1.858-3.763-6.715-3.781-6.763l-1.862.734c.085.214,2.1,5.285,4.219,7.434a3.856,3.856,0,0,0,1.712,1V48a5,5,0,0,0,10,0v-.2a3.846,3.846,0,0,0,1.712-1c2.119-2.149,4.134-7.219,4.219-7.434l-1.862-.734c-.535,1.358-2.257,5.219-3.781,6.763-1.084,1.1-3.267.441-4.288.044v-1.6l1.73-.436A3.011,3.011,0,0,0,37,40.478V38a1.052,1.052,0,0,0-.023-.217L35.41,30.736A3.483,3.483,0,0,0,34.223,28.8l2.831.944C37.308,31.616,38.508,33,40,33c1.595,0,2.847-1.585,2.975-3.66L44,27.8l1.168,1.752a1,1,0,0,0,.59.415l3.542.885a4.887,4.887,0,0,1,2.24,8.225c-2.95,2.879-8.669,7.94-13.826,9.481l.572,1.916a22.721,22.721,0,0,0,5.063-2.337l.626,1.728a.784.784,0,0,1-.309.825L41.71,52.209l1.225,1.582,1.956-1.517a2.806,2.806,0,0,0,.989-3.007l-.8-2.233a57.139,57.139,0,0,0,6.642-5.362l.86,1.72A4.005,4.005,0,0,1,53,45.18v1.97a4,4,0,0,1-.963,2.6l-9.6,11.2A2.993,2.993,0,0,1,40.16,62Zm19.279,0H44.174l8.657-10.1,1.089,2.178Z"/></g></svg>