<?xml version="1.0" encoding="UTF-8"?>
<svg xmlns="http://www.w3.org/2000/svg" xmlns:xlink="http://www.w3.org/1999/xlink" viewBox="0 0 64 64" width="64px" height="64px">
<g id="surface251674303">
<path style=" stroke:none;fill-rule:nonzero;fill:rgb(94.509804%,76.862746%,5.882353%);fill-opacity:1;" d="M 31 52 L 36 57 C 30.566406 59.039062 24.804688 60.054688 19 60 L 18.941406 60.121094 C 14.894531 58.238281 11.300781 55.507812 8.410156 52.109375 C 22.179688 55.921875 31 52 31 52 Z M 31 52 "/>
<path style=" stroke:none;fill-rule:nonzero;fill:rgb(93.333334%,94.901961%,98.039216%);fill-opacity:1;" d="M 36 57 L 40.75 61.75 C 37.90625 62.578125 34.960938 63 32 63 C 27.488281 63.007812 23.03125 62.023438 18.941406 60.121094 L 19 60 C 24.804688 60.054688 30.566406 59.039062 36 57 Z M 36 57 "/>
<path style=" stroke:none;fill-rule:nonzero;fill:rgb(93.333334%,94.901961%,98.039216%);fill-opacity:1;" d="M 17.671875 45.539062 C 20.097656 45.871094 22.546875 46.027344 25 46 L 25.011719 45.988281 C 25.082031 46.078125 25.160156 46.160156 25.238281 46.238281 L 31 52 C 31 52 22.179688 55.921875 8.410156 52.109375 C 5.679688 48.914062 3.625 45.195312 2.378906 41.179688 C 3.910156 41.921875 5.480469 42.570312 7.089844 43.121094 C 10.527344 44.28125 14.070312 45.089844 17.671875 45.539062 Z M 17.671875 45.539062 "/>
<path style=" stroke:none;fill-rule:nonzero;fill:rgb(93.333334%,94.901961%,98.039216%);fill-opacity:1;" d="M 41.039062 17.011719 L 41 17.019531 C 40.671875 17.011719 40.339844 17 40 17 C 32.925781 17.007812 26.25 20.265625 21.890625 25.835938 C 17.53125 31.40625 15.976562 38.671875 17.671875 45.539062 C 14.070312 45.089844 10.527344 44.28125 7.089844 43.121094 L 7.128906 43 C 7.050781 42.011719 7 41.011719 7 40 C 7 23.320312 19.441406 9.261719 36 7.238281 L 36.148438 7.109375 C 38.554688 9.964844 40.234375 13.363281 41.039062 17.011719 Z M 41.039062 17.011719 "/>
<path style=" stroke:none;fill-rule:nonzero;fill:rgb(94.509804%,76.862746%,5.882353%);fill-opacity:1;" d="M 41.039062 17.011719 C 41.5625 19.132812 41.882812 21.296875 41.988281 23.480469 C 40.402344 23.480469 38.878906 24.113281 37.761719 25.238281 L 25.238281 37.761719 C 22.992188 40.007812 22.890625 43.621094 25.011719 45.988281 L 25 46 C 22.546875 46.027344 20.097656 45.871094 17.671875 45.539062 C 15.976562 38.671875 17.53125 31.40625 21.890625 25.835938 C 26.25 20.265625 32.925781 17.007812 40 17 C 40.339844 17 40.671875 17.011719 41 17.019531 Z M 41.039062 17.011719 "/>
<path style=" stroke:none;fill-rule:nonzero;fill:rgb(94.509804%,76.862746%,5.882353%);fill-opacity:1;" d="M 36.148438 7.109375 L 36 7.238281 C 19.441406 9.261719 7 23.320312 7 40 C 7 41.011719 7.050781 42.011719 7.128906 43 L 7.089844 43.121094 C 5.480469 42.570312 3.910156 41.921875 2.378906 41.179688 C -0.113281 33.09375 0.800781 24.339844 4.910156 16.941406 C 9.023438 9.546875 15.976562 4.148438 24.160156 2 C 28.714844 1.855469 33.101562 3.726562 36.148438 7.109375 Z M 36.148438 7.109375 "/>
<path style=" stroke:none;fill-rule:nonzero;fill:rgb(94.509804%,76.862746%,5.882353%);fill-opacity:1;" d="M 60.121094 18.941406 L 60 19 C 60 29.308594 57.480469 33.960938 56.441406 35.441406 L 51 30 C 51 30 54.628906 13.488281 43.019531 3.019531 C 50.574219 5.902344 56.707031 11.613281 60.121094 18.941406 Z M 60.121094 18.941406 "/>
<path style=" stroke:none;fill-rule:nonzero;fill:rgb(96.862745%,98.039216%,100%);fill-opacity:1;" d="M 63 32 C 63 34.960938 62.578125 37.90625 61.75 40.75 L 56.441406 35.441406 C 57.480469 33.960938 60 29.308594 60 19 L 60.121094 18.941406 C 62.023438 23.03125 63.007812 27.488281 63 32 Z M 63 32 "/>
<path style=" stroke:none;fill-rule:nonzero;fill:rgb(96.862745%,98.039216%,100%);fill-opacity:1;" d="M 43.019531 3.019531 C 54.628906 13.488281 51 30 51 30 L 46.238281 25.238281 C 45.113281 24.113281 43.585938 23.480469 41.988281 23.480469 C 41.882812 21.296875 41.5625 19.132812 41.039062 17.011719 C 40.234375 13.363281 38.554688 9.964844 36.148438 7.109375 C 33.101562 3.726562 28.714844 1.855469 24.160156 2 C 26.71875 1.335938 29.355469 1 32 1 C 35.765625 0.992188 39.5 1.679688 43.019531 3.019531 Z M 43.019531 3.019531 "/>
<path style=" stroke:none;fill-rule:nonzero;fill:rgb(93.333334%,94.901961%,98.039216%);fill-opacity:1;" d="M 57 50 L 57.160156 50.121094 C 55.199219 52.820312 52.820312 55.199219 50.121094 57.160156 L 50 57 L 28 35 L 35 28 Z M 57 50 "/>
<path style=" stroke:none;fill-rule:nonzero;fill:rgb(94.509804%,76.862746%,5.882353%);fill-opacity:1;" d="M 50 57 L 50.121094 57.160156 C 47.277344 59.207031 44.109375 60.757812 40.75 61.75 L 25.238281 46.238281 C 25.160156 46.160156 25.082031 46.078125 25.011719 45.988281 C 22.890625 43.621094 22.992188 40.007812 25.238281 37.761719 L 28 35 Z M 50 57 "/>
<path style=" stroke:none;fill-rule:nonzero;fill:rgb(94.509804%,76.862746%,5.882353%);fill-opacity:1;" d="M 56.441406 35.441406 L 61.75 40.75 C 60.757812 44.109375 59.207031 47.277344 57.160156 50.121094 L 57 50 L 35 28 L 37.761719 25.238281 C 38.882812 24.113281 40.410156 23.480469 42 23.480469 C 43.589844 23.480469 45.117188 24.113281 46.238281 25.238281 Z M 56.441406 35.441406 "/>
<path style=" stroke:none;fill-rule:nonzero;fill:rgb(94.509804%,76.862746%,5.882353%);fill-opacity:1;" d="M 28.5 54.5 L 32.238281 58.238281 C 33.519531 57.90625 34.773438 57.492188 36 57 L 31 52 C 29.742188 52.496094 28.441406 52.867188 27.109375 53.109375 Z M 28.5 54.5 "/>
<path style=" stroke:none;fill-rule:nonzero;fill:rgb(86.274511%,88.235295%,92.156863%);fill-opacity:1;" d="M 36 57 C 34.773438 57.492188 33.519531 57.90625 32.238281 58.238281 L 36.648438 62.648438 C 38.03125 62.4375 39.402344 62.140625 40.746094 61.746094 Z M 36 57 "/>
<path style=" stroke:none;fill-rule:nonzero;fill:rgb(86.274511%,88.235295%,92.156863%);fill-opacity:1;" d="M 22.738281 48.738281 L 27.109375 53.109375 C 28.441406 52.867188 29.742188 52.496094 31 52 L 25.238281 46.238281 C 25.160156 46.160156 25.082031 46.078125 25.011719 45.988281 L 25 46 C 25 46 23.535156 46.046875 21.171875 45.886719 C 21.394531 46.851562 21.851562 47.746094 22.511719 48.484375 C 22.582031 48.574219 22.65625 48.660156 22.738281 48.738281 Z M 22.738281 48.738281 "/>
<path style=" stroke:none;fill-rule:nonzero;fill:rgb(86.274511%,88.235295%,92.156863%);fill-opacity:1;" d="M 7.023438 38.949219 C 7.015625 39.300781 7 39.648438 7 40 C 7 41.011719 7.050781 42.011719 7.128906 43 L 7.089844 43.121094 C 10.527344 44.28125 14.070312 45.089844 17.671875 45.539062 C 17.339844 44.207031 17.132812 42.851562 17.050781 41.480469 C 13.613281 41.066406 10.246094 40.214844 7.023438 38.949219 Z M 7.023438 38.949219 "/>
<path style=" stroke:none;fill-rule:nonzero;fill:rgb(86.274511%,88.235295%,92.156863%);fill-opacity:1;" d="M 31.167969 8.199219 C 33.949219 10.625 36.085938 13.703125 37.390625 17.152344 C 38.257812 17.050781 39.128906 17 40 17 C 40.339844 17 40.671875 17.011719 41 17.019531 L 41.039062 17.011719 C 40.234375 13.363281 38.554688 9.964844 36.148438 7.109375 L 36 7.238281 C 34.367188 7.4375 32.753906 7.757812 31.167969 8.199219 Z M 31.167969 8.199219 "/>
<path style=" stroke:none;fill-rule:nonzero;fill:rgb(94.509804%,76.862746%,5.882353%);fill-opacity:1;" d="M 36 7.238281 L 36.148438 7.109375 C 33.101562 3.726562 28.714844 1.855469 24.160156 2 C 22.875 2.335938 21.613281 2.753906 20.382812 3.253906 C 24.375 3.839844 28.117188 5.558594 31.167969 8.199219 C 32.753906 7.757812 34.367188 7.4375 36 7.238281 Z M 36 7.238281 "/>
<path style=" stroke:none;fill-rule:nonzero;fill:rgb(94.509804%,76.862746%,5.882353%);fill-opacity:1;" d="M 7 40 C 7 39.648438 7.015625 39.300781 7.023438 38.949219 C 4.777344 38.140625 2.765625 36.792969 1.160156 35.023438 C 1.355469 37.109375 1.765625 39.175781 2.378906 41.179688 C 3.910156 41.921875 5.480469 42.570312 7.089844 43.121094 L 7.128906 43 C 7.050781 42.011719 7 41.011719 7 40 Z M 7 40 "/>
<path style=" stroke:none;fill-rule:nonzero;fill:rgb(94.509804%,76.862746%,5.882353%);fill-opacity:1;" d="M 41.640625 20.015625 C 41.5 19.105469 41.308594 18.089844 41.039062 17.011719 L 41 17.019531 C 40.667969 17.011719 40.339844 17 40 17 C 39.125 17 38.253906 17.050781 37.390625 17.152344 C 37.632812 17.785156 37.847656 18.4375 38.035156 19.097656 C 38.28125 19.898438 37.992188 20.765625 37.320312 21.261719 C 36.996094 21.488281 36.695312 21.742188 36.414062 22.023438 L 33.242188 25.199219 L 25.191406 33.246094 L 22.019531 36.421875 C 21.058594 37.375 20.40625 38.59375 20.140625 39.921875 C 19.953125 40.972656 18.984375 41.703125 17.921875 41.59375 C 17.628906 41.558594 17.335938 41.523438 17.050781 41.484375 C 17.132812 42.851562 17.339844 44.210938 17.671875 45.542969 C 19.253906 45.742188 20.652344 45.863281 21.796875 45.929688 C 23.789062 46.039062 25 46 25 46 L 25.011719 45.988281 C 22.90625 43.613281 23.003906 40.011719 25.238281 37.761719 L 37.761719 25.238281 C 38.113281 24.890625 38.511719 24.589844 38.941406 24.339844 C 39.859375 23.78125 40.914062 23.484375 41.988281 23.476562 C 41.933594 22.320312 41.816406 21.164062 41.640625 20.015625 Z M 41.640625 20.015625 "/>
<path style=" stroke:none;fill-rule:nonzero;fill:rgb(94.509804%,76.862746%,5.882353%);fill-opacity:1;" d="M 32.238281 58.238281 L 27.109375 53.109375 C 20.886719 54.25 14.480469 53.90625 8.410156 52.109375 C 11.304688 55.507812 14.894531 58.238281 18.941406 60.121094 L 19 60 C 23.472656 60 27.921875 59.410156 32.238281 58.238281 Z M 32.238281 58.238281 "/>
<path style=" stroke:none;fill-rule:nonzero;fill:rgb(68.627453%,70.588237%,78.431374%);fill-opacity:1;" d="M 33.5 59.5 L 32.238281 58.238281 C 27.921875 59.410156 23.472656 60 19 60 L 18.941406 60.121094 C 23.03125 62.023438 27.488281 63.007812 32 63 C 34.261719 63 36.515625 62.753906 38.722656 62.265625 C 38.039062 62.414062 37.347656 62.542969 36.648438 62.648438 Z M 33.5 59.5 "/>
<path style=" stroke:none;fill-rule:nonzero;fill:rgb(68.627453%,70.588237%,78.431374%);fill-opacity:1;" d="M 27.109375 53.109375 L 23.300781 49.300781 C 21.363281 48.25 19.546875 47 17.875 45.570312 L 17.675781 45.546875 C 14.074219 45.09375 10.527344 44.28125 7.089844 43.121094 C 5.480469 42.570312 3.910156 41.921875 2.378906 41.179688 C 3.625 45.195312 5.679688 48.914062 8.410156 52.109375 C 14.480469 53.90625 20.886719 54.25 27.109375 53.109375 Z M 27.109375 53.109375 "/>
<path style=" stroke:none;fill-rule:nonzero;fill:rgb(68.627453%,70.588237%,78.431374%);fill-opacity:1;" d="M 13.398438 40.855469 C 11.097656 37.859375 9.363281 34.464844 8.285156 30.84375 C 7.53125 33.484375 7.105469 36.207031 7.023438 38.949219 C 9.085938 39.777344 11.222656 40.414062 13.398438 40.855469 Z M 13.398438 40.855469 "/>
<path style=" stroke:none;fill-rule:nonzero;fill:rgb(94.509804%,76.862746%,5.882353%);fill-opacity:1;" d="M 7.023438 38.949219 C 7.105469 36.207031 7.53125 33.484375 8.285156 30.84375 C 6.390625 24.457031 6.59375 17.628906 8.871094 11.367188 C 2.488281 18.492188 -0.230469 28.175781 1.519531 37.582031 C 1.371094 36.738281 1.246094 35.882812 1.160156 35.023438 C 2.765625 36.792969 4.777344 38.140625 7.023438 38.949219 Z M 7.023438 38.949219 "/>
<path style=" stroke:none;fill-rule:nonzero;fill:rgb(68.627453%,70.588237%,78.431374%);fill-opacity:1;" d="M 54.949219 47.949219 C 51.957031 49.910156 48.644531 51.335938 45.160156 52.160156 L 50 57 L 50.121094 57.160156 C 52.820312 55.199219 55.199219 52.820312 57.160156 50.121094 L 57 50 Z M 54.949219 47.949219 "/>
<path style=" stroke:none;fill-rule:nonzero;fill:rgb(94.509804%,76.862746%,5.882353%);fill-opacity:1;" d="M 45.160156 52.160156 C 40.59375 53.246094 35.839844 53.28125 31.261719 52.261719 L 40.75 61.75 C 44.109375 60.757812 47.277344 59.207031 50.121094 57.160156 L 50 57 Z M 45.160156 52.160156 "/>
<path style=" stroke:none;fill-rule:nonzero;fill:rgb(94.509804%,76.862746%,5.882353%);fill-opacity:1;" d="M 27.109375 53.109375 L 32.238281 58.238281 C 32.453125 58.179688 32.648438 58.125 32.847656 58.066406 C 32.941406 58.039062 33.039062 58.011719 33.128906 57.984375 C 33.3125 57.929688 33.484375 57.878906 33.652344 57.824219 L 33.910156 57.746094 C 34.066406 57.695312 34.210938 57.644531 34.351562 57.601562 L 34.570312 57.527344 C 34.703125 57.484375 34.824219 57.441406 34.9375 57.402344 L 35.113281 57.339844 L 35.398438 57.238281 L 35.535156 57.1875 L 35.738281 57.113281 L 35.847656 57.070312 L 35.9375 57.03125 L 36 57 L 31.253906 52.253906 C 31.066406 52.214844 30.875 52.171875 30.6875 52.125 C 29.523438 52.550781 28.328125 52.878906 27.109375 53.109375 Z M 27.109375 53.109375 "/>
<path style=" stroke:none;fill-rule:nonzero;fill:rgb(61.56863%,63.921571%,70.980394%);fill-opacity:1;" d="M 35.933594 57.027344 L 35.839844 57.066406 L 35.730469 57.109375 L 35.53125 57.183594 L 35.394531 57.234375 L 35.109375 57.335938 L 34.933594 57.398438 C 34.820312 57.4375 34.699219 57.480469 34.566406 57.523438 L 34.347656 57.597656 C 34.207031 57.644531 34.0625 57.691406 33.902344 57.742188 L 33.648438 57.820312 C 33.476562 57.875 33.308594 57.921875 33.125 57.980469 C 33.035156 58.007812 32.9375 58.035156 32.84375 58.0625 C 32.644531 58.121094 32.449219 58.175781 32.234375 58.234375 L 36.648438 62.648438 C 37.34375 62.542969 38.039062 62.414062 38.722656 62.265625 C 39.40625 62.113281 40.082031 61.941406 40.75 61.75 L 36 57 Z M 35.933594 57.027344 "/>
<path style=" stroke:none;fill-rule:nonzero;fill:rgb(61.56863%,63.921571%,70.980394%);fill-opacity:1;" d="M 23.300781 49.300781 L 27.117188 53.117188 C 28.332031 52.882812 29.527344 52.550781 30.691406 52.128906 C 28.117188 51.507812 25.632812 50.558594 23.300781 49.300781 Z M 23.300781 49.300781 "/>
<path style=" stroke:none;fill-rule:nonzero;fill:rgb(94.509804%,76.862746%,5.882353%);fill-opacity:1;" d="M 54.949219 47.949219 L 57 50 L 57.160156 50.121094 C 58.800781 47.828125 60.125 45.324219 61.09375 42.675781 C 59.28125 44.695312 57.21875 46.46875 54.949219 47.949219 Z M 54.949219 47.949219 "/>
<path style=" stroke:none;fill-rule:nonzero;fill:rgb(61.56863%,63.921571%,70.980394%);fill-opacity:1;" d="M 13.398438 40.855469 C 11.222656 40.417969 9.085938 39.78125 7.023438 38.953125 C 7.015625 39.300781 7 39.648438 7 40 C 7 41.011719 7.050781 42.011719 7.128906 43 L 7.089844 43.121094 C 10.527344 44.28125 14.070312 45.089844 17.671875 45.539062 C 17.65625 45.480469 17.644531 45.417969 17.632812 45.359375 C 16.074219 44 14.65625 42.492188 13.398438 40.855469 Z M 13.398438 40.855469 "/>
<path style=" stroke:none;fill-rule:nonzero;fill:rgb(94.509804%,76.862746%,5.882353%);fill-opacity:1;" d="M 7.128906 43 C 7.050781 42.011719 7 41.011719 7 40 C 7 39.648438 7.015625 39.300781 7.023438 38.949219 C 4.777344 38.140625 2.765625 36.792969 1.160156 35.023438 C 1.246094 35.886719 1.371094 36.738281 1.519531 37.582031 C 1.574219 37.882812 1.628906 38.191406 1.695312 38.492188 C 1.753906 38.773438 1.8125 39.046875 1.878906 39.324219 C 2.03125 39.949219 2.191406 40.570312 2.378906 41.179688 C 3.910156 41.921875 5.480469 42.570312 7.089844 43.121094 Z M 7.128906 43 "/>
<path style=" stroke:none;fill-rule:nonzero;fill:rgb(96.470588%,98.039216%,99.215686%);fill-opacity:1;" d="M 56.84375 17.53125 C 57.738281 18.425781 57.941406 19.667969 57.300781 20.308594 C 56.660156 20.953125 55.417969 20.75 54.523438 19.855469 C 53.628906 18.964844 53.425781 17.71875 54.066406 17.078125 C 54.707031 16.4375 55.953125 16.640625 56.84375 17.53125 Z M 56.84375 17.53125 "/>
<path style=" stroke:none;fill-rule:nonzero;fill:rgb(96.470588%,98.039216%,99.215686%);fill-opacity:1;" d="M 57.265625 22.121094 C 57.714844 22.570312 57.816406 23.195312 57.492188 23.519531 C 57.171875 23.839844 56.546875 23.738281 56.097656 23.289062 C 55.648438 22.84375 55.546875 22.21875 55.871094 21.894531 C 56.191406 21.574219 56.816406 21.675781 57.265625 22.121094 Z M 57.265625 22.121094 "/>
<path style=" stroke:none;fill-rule:nonzero;fill:rgb(0%,0%,0%);fill-opacity:1;" d="M 32 0 C 29.316406 -0.00390625 26.644531 0.332031 24.042969 1 L 24 1 L 24 1.011719 C 15.453125 3.21875 8.195312 8.855469 3.949219 16.589844 C -0.300781 24.328125 -1.160156 33.476562 1.566406 41.871094 L 1.554688 41.894531 L 1.578125 41.90625 C 2.894531 45.925781 4.992188 49.648438 7.757812 52.851562 L 7.726562 52.960938 C 7.78125 52.976562 7.835938 52.988281 7.890625 53.007812 C 17.582031 64.128906 33.625 67.179688 46.722656 60.394531 C 59.824219 53.609375 66.582031 38.746094 63.089844 24.414062 C 59.59375 10.082031 46.753906 -0.00390625 32 0 Z M 61.214844 38.800781 L 57.714844 35.300781 C 58.75 33.542969 60.28125 29.972656 60.8125 23.660156 C 62.246094 28.589844 62.382812 33.800781 61.214844 38.796875 Z M 59.035156 19 L 59 19 C 59 27.261719 57.34375 31.753906 56.242188 33.828125 L 52.082031 29.667969 C 52.554688 27.019531 54.078125 15.527344 47.179688 6.136719 C 52.3125 9.160156 56.4375 13.636719 59.035156 19 Z M 32 2 C 35.582031 2 39.136719 2.640625 42.492188 3.898438 C 51.117188 11.8125 50.8125 23.390625 50.304688 27.894531 L 46.949219 24.539062 C 45.863281 23.449219 44.449219 22.753906 42.925781 22.554688 C 42.585938 18.28125 40.714844 5.753906 30.378906 2.046875 C 30.914062 2.015625 31.457031 2 32 2 Z M 24.289062 3.007812 C 27.882812 2.945312 31.378906 4.1875 34.125 6.507812 C 32.269531 6.832031 30.445312 7.308594 28.667969 7.9375 L 29.332031 9.820312 C 31.441406 9.078125 33.621094 8.5625 35.839844 8.273438 C 37.074219 9.800781 38.070312 11.503906 38.800781 13.328125 C 39.15625 14.207031 39.46875 15.101562 39.730469 16.011719 C 28.992188 16.136719 19.640625 23.375 16.824219 33.738281 L 18.757812 34.261719 C 21.359375 24.667969 30.0625 18.007812 40 18 C 40.082031 18 40.164062 18 40.246094 18 C 40.574219 19.507812 40.804688 21.03125 40.929688 22.570312 C 39.460938 22.792969 38.101562 23.480469 37.050781 24.53125 L 24.535156 37.050781 C 22.449219 39.140625 21.902344 42.3125 23.160156 44.980469 C 22.023438 44.941406 20.414062 44.847656 18.496094 44.625 C 18.167969 43.105469 18 41.554688 18 40 L 16 40 C 16.003906 41.457031 16.136719 42.910156 16.398438 44.34375 C 13.585938 43.917969 10.808594 43.269531 8.101562 42.398438 C 8.035156 41.601562 8 40.800781 8 40 C 7.992188 27.191406 15.625 15.617188 27.398438 10.578125 L 26.609375 8.742188 C 14.101562 14.09375 5.992188 26.394531 6 40 C 6 40.554688 6.015625 41.117188 6.042969 41.675781 C 5.101562 41.316406 4.160156 40.921875 3.230469 40.480469 C 0.933594 32.71875 1.878906 24.355469 5.84375 17.296875 C 9.8125 10.238281 16.464844 5.085938 24.289062 3.007812 Z M 24.320312 47.007812 L 24.59375 47.007812 L 29.164062 51.578125 C 26.242188 52.445312 18.976562 53.910156 8.988281 51.222656 C 6.941406 48.777344 5.300781 46.019531 4.121094 43.054688 C 10.550781 45.613281 17.402344 46.953125 24.320312 47.007812 Z M 20.222656 54.789062 C 23.800781 54.847656 27.363281 54.300781 30.757812 53.167969 L 34.1875 56.601562 C 29.28125 58.195312 24.15625 59.007812 19 59 L 19 59.035156 C 16.257812 57.707031 13.730469 55.96875 11.507812 53.882812 C 14.375 54.472656 17.292969 54.777344 20.222656 54.789062 Z M 23.585938 60.789062 C 27.742188 60.453125 31.832031 59.570312 35.757812 58.167969 L 38.800781 61.214844 C 33.777344 62.390625 28.535156 62.246094 23.585938 60.789062 Z M 50.222656 55.808594 L 46.707031 52.289062 L 45.292969 53.703125 L 48.574219 56.988281 C 46.242188 58.542969 43.699219 59.761719 41.027344 60.609375 L 25.949219 45.535156 C 24 43.582031 24 40.417969 25.949219 38.464844 L 28 36.414062 L 44.292969 52.707031 L 45.707031 51.292969 L 29.414062 35 L 35 29.414062 L 37.292969 31.707031 L 38.707031 30.292969 L 36.414062 28 L 38.464844 25.949219 C 40.417969 24 43.582031 24 45.535156 25.949219 L 60.609375 41.023438 C 59.761719 43.699219 58.542969 46.242188 56.988281 48.574219 L 44.707031 36.292969 L 43.292969 37.707031 L 55.808594 50.222656 C 54.199219 52.320312 52.320312 54.199219 50.222656 55.808594 Z M 50.222656 55.808594 "/>
<path style=" stroke:none;fill-rule:nonzero;fill:rgb(0%,0%,0%);fill-opacity:1;" d="M 16.089844 37.914062 L 18.082031 38.085938 C 18.136719 37.453125 18.21875 36.808594 18.332031 36.171875 L 16.359375 35.828125 C 16.238281 36.519531 16.148438 37.222656 16.089844 37.914062 Z M 16.089844 37.914062 "/>
<path style=" stroke:none;fill-rule:nonzero;fill:rgb(0%,0%,0%);fill-opacity:1;" d="M 39.289062 33.707031 L 40.707031 32.292969 L 42.707031 34.292969 L 41.289062 35.707031 Z M 39.289062 33.707031 "/>
</g>
</svg>
