<svg xmlns="http://www.w3.org/2000/svg" version="1.1" xmlns:xlink="http://www.w3.org/1999/xlink" xmlns:svgjs="http://svgjs.com/svgjs" width="768" height="1024" preserveAspectRatio="none" viewBox="0 0 768 1024"><g mask="url(&quot;#SvgjsMask1047&quot;)" fill="none"><rect width="768" height="1024" x="0" y="0" fill="rgba(26, 28, 32, 1)"></rect><path d="M0,316.995C70.068,322.619,146.898,358.582,206.56,321.413C266.209,284.252,271.855,200.912,293.599,134.082C312.964,74.565,326.389,15.658,326.405,-46.93C326.423,-118.419,325.17,-190.302,293.698,-254.491C256.08,-331.215,212.956,-421.961,130.876,-445.722C48.788,-469.485,-30.76,-405.539,-108.951,-371.053C-177.324,-340.897,-249.105,-314.704,-296.735,-257.122C-343.798,-200.225,-355.914,-125.577,-371.669,-53.438C-388.608,24.121,-429.704,109.16,-391.986,179.014C-354.215,248.967,-261.283,263.484,-186.294,289.88C-125.878,311.147,-63.845,311.87,0,316.995" fill="#15161a"></path><path d="M768 1334.72C823.449 1320.251 868.351 1286.127 915.958 1254.227 962.582 1222.9859999999999 1018.892 1200.247 1043.767 1149.938 1068.885 1099.137 1056.71 1039.731 1049.827 983.479 1042.806 926.096 1040.108 864.686 1003.4010000000001 820.024 966.356 774.951 903.481 766.885 850.949 741.502 786.374 710.3 730.684 646.981 659.2860000000001 653.7529999999999 586.3489999999999 660.671 518.363 712.675 482.33 776.466 447.954 837.322 472.648 911.852 474.022 981.732 475.16 1039.589 476.379 1094.782 489.699 1151.096 506.01 1220.055 501.272 1307.976 560.419 1347.002 619.47 1385.964 699.545 1352.583 768 1334.72" fill="#1f2226"></path></g><defs><mask id="SvgjsMask1047"><rect width="768" height="1024" fill="#ffffff"></rect></mask></defs></svg>