<?xml version="1.0" standalone="no"?><svg xmlns="http://www.w3.org/2000/svg" viewBox="0 0 1440 320"><path fill="#14161b" fill-opacity="1" d="M0,128L34.3,154.7C68.6,181,137,235,206,261.3C274.3,288,343,288,411,256C480,224,549,160,617,165.3C685.7,171,754,245,823,277.3C891.4,309,960,299,1029,250.7C1097.1,203,1166,117,1234,74.7C1302.9,32,1371,32,1406,32L1440,32L1440,0L1405.7,0C1371.4,0,1303,0,1234,0C1165.7,0,1097,0,1029,0C960,0,891,0,823,0C754.3,0,686,0,617,0C548.6,0,480,0,411,0C342.9,0,274,0,206,0C137.1,0,69,0,34,0L0,0Z"></path></svg>