<svg xmlns="http://www.w3.org/2000/svg" version="1.1" xmlns:xlink="http://www.w3.org/1999/xlink" xmlns:svgjs="http://svgjs.com/svgjs" width="1920" height="1080" preserveAspectRatio="none" viewBox="0 0 1920 1080"><g mask="url(&quot;#SvgjsMask1054&quot;)" fill="none"><rect width="1920" height="1080" x="0" y="0" fill="rgba(26, 28, 32, 1)"></rect><path d="M0,942.353C174.21,952.907,248.768,709.902,396.22,616.531C545.172,522.21,796.922,557.647,864.61,394.854C932.954,230.483,718.633,76.518,694.06,-99.791C669.315,-277.333,846.916,-497.015,722.343,-625.914C595.109,-757.567,360.269,-577.12,184.207,-627.351C10.449,-676.925,-85.983,-911.884,-266.635,-908.074C-446.485,-904.281,-583.224,-743.383,-702.423,-608.653C-822.538,-472.888,-953.508,-317.71,-949.279,-136.486C-945.138,40.978,-793.886,174.023,-680.962,310.985C-592.746,417.979,-468.211,476.038,-366.523,570.32C-236.227,691.127,-177.358,931.608,0,942.353" fill="#15161a"></path><path d="M1920 1657.162C2026.295 1659.685 2111.089 1572.155 2191.828 1502.973 2263.75 1441.346 2307.382 1359.82 2359.391 1280.663 2421.6440000000002 1185.914 2545.033 1104.655 2527.0879999999997 992.7139999999999 2509.082 880.394 2368.262 838.822 2277.556 770.1759999999999 2205.739 715.825 2134.173 668.05 2051.347 632.674 1958.106 592.8489999999999 1864.552 533.478 1764.711 551.134 1661.829 569.328 1589.3609999999999 655.922 1513.5230000000001 727.7850000000001 1429.922 807.004 1300.8139999999999 875.768 1300.578 990.941 1300.336 1109.097 1443.858 1169.906 1512.42 1266.135 1565.004 1339.939 1590.946 1427.527 1656.339 1490.2640000000001 1732.949 1563.762 1813.865 1654.643 1920 1657.162" fill="#1f2226"></path></g><defs><mask id="SvgjsMask1054"><rect width="1920" height="1080" fill="#ffffff"></rect></mask></defs></svg>