<svg xmlns="http://www.w3.org/2000/svg" version="1.1" xmlns:xlink="http://www.w3.org/1999/xlink" xmlns:svgjs="http://svgjs.com/svgjs" width="375" height="812" preserveAspectRatio="none" viewBox="0 0 375 812"><g mask="url(&quot;#SvgjsMask1027&quot;)" fill="none"><rect width="375" height="812" x="0" y="0" fill="rgba(26, 28, 32, 1)"></rect><path d="M0,343.257C62.408,333.348,102.348,275.615,152.051,236.595C196.548,201.662,240.717,170.115,276.429,126.241C322.605,69.511,385.806,16.89,390.308,-56.118C394.978,-131.859,356.789,-209.551,300.257,-260.174C245.816,-308.925,164.461,-300.712,94.307,-321.18C24.307,-341.603,-40.795,-397.442,-111.684,-380.361C-182.983,-363.182,-232.652,-296.932,-269.498,-233.521C-302.498,-176.728,-303.581,-109.739,-307.044,-44.146C-310.219,15.982,-309.188,75.234,-288.791,131.886C-267.058,192.248,-238.376,252.473,-186.606,290.364C-133.356,329.338,-65.173,353.605,0,343.257" fill="#15161a"></path><path d="M375 1115.7640000000001C431.694 1116.011 485.918 1088.254 528.434 1050.748 567.675 1016.131 588.386 966.172 601.885 915.615 613.83 870.88 605.6320000000001 825.582 600.852 779.527 595.862 731.456 601.985 679.068 573.295 640.1759999999999 543.937 600.379 491.577 589.262 446.123 569.778 394.331 547.578 342.515 501.384 288.733 518.201 234.864 535.046 213.339 599.696 188.448 650.352 168.369 691.216 165.061 735.827 159.587 781.028 154.243 825.156 146.671 868.367 156.804 911.647 168.639 962.197 184.51 1013.947 222.424 1049.414 263.762 1088.085 318.395 1115.517 375 1115.7640000000001" fill="#1f2226"></path></g><defs><mask id="SvgjsMask1027"><rect width="375" height="812" fill="#ffffff"></rect></mask></defs></svg>