<svg width="1333" height="1026" viewBox="0 0 1333 1026" fill="none" xmlns="http://www.w3.org/2000/svg">
<path d="M789.777 688.594V664.191V495.11C789.777 425.385 909.082 425.385 968.735 434.101C974.526 382.388 990.974 277.569 1010.43 271.99C1236.3 231.899 1245.88 345.202 1238.04 409.696C1203.29 695.567 1128.58 688.594 1095.57 688.594H789.777Z" fill="#CF7500"/>
<rect width="32" height="292" transform="matrix(-1 0 0 1 980.777 677.609)" fill="#F0A500"/>
<path d="M980.777 969.609H948.777L980.777 677.609V969.609Z" fill="#F4F4F4"/>
<path d="M980.364 969.609H948.957C940.233 978.443 917.55 985.509 891.377 989.043C863.46 992.812 840.777 992.576 840.777 1022.61H1093.78C1093.78 992.576 1079.82 992.576 1039.69 989.043C1007.58 986.216 986.761 974.909 980.364 969.609Z" fill="#F4F4F4"/>
<path d="M513.002 935C546.003 937 548.503 879 548.503 879L634.489 895.632C634.489 895.632 618.192 925.055 608.48 954.722C603.186 970.894 598.129 1002.43 590.968 1011.74C575 1030.5 476.09 974.405 513.002 935Z" fill="#F1B09B"/>
<path d="M634.489 895.633C634.489 895.633 618.191 925.055 608.479 954.722C603.186 970.894 598.129 1002.43 590.967 1011.74C589.196 1011.87 587.371 1011.92 585.502 1011.9C604.002 992.302 598.502 962.501 602.502 954.722C606.502 946.944 631.002 902.214 614.502 903.501C601.302 904.53 563.873 896.93 546.808 893.001C548.245 884.964 548.502 879.001 548.502 879.001L634.489 895.633Z" fill="#EC8E65"/>
<path d="M417.639 935.306C435.447 938.224 478.001 932.5 516.496 934.875C525.4 948.919 517.863 966.013 518.919 975.51C519.976 985.007 520.8 990.189 555.439 1002.95C590.077 1015.71 587.87 1011.59 591.055 1011.93C594.241 1012.28 590.577 1023.35 588.389 1022.54C586.201 1021.74 435.028 969.035 420.213 963.163C405.398 957.291 403.305 933.75 417.639 935.306Z" fill="#CF7500"/>
<path d="M868.789 161.644C873.277 189.712 859.906 198.601 852.659 199.536C843.682 265.217 905.491 271.345 937.518 266.199C946.635 243.978 962.064 197.291 950.843 188.309C939.622 179.327 926.063 157.433 920.687 147.609C912.271 149.247 890.109 154.346 868.789 161.644Z" fill="#F1B09B"/>
<path d="M920.687 147.609C912.271 149.247 890.109 154.346 868.789 161.644C872.218 183.086 865.224 193.335 858.5 197.396C885.3 208.113 911.124 168.67 920.687 147.609Z" fill="#EC8E65"/>
<path d="M697.999 964C730 955 715.503 903.712 715.503 903.712L795.657 887.609C795.657 887.609 788.628 921.215 793.548 951.32C796.291 968.106 798.469 1000.33 794.954 1011.53C786.499 1032 666.168 1016.38 697.999 964Z" fill="#F1B09B"/>
<path d="M795.658 887.609C795.658 887.609 788.629 921.215 793.548 951.32C796.291 968.106 798.47 1000.33 794.954 1011.53C794.288 1013.14 792.927 1014.53 791.001 1015.7C794.501 1001.89 795.658 968.82 791.001 960.5C786.344 952.18 789.001 911.5 784.501 912C780.901 912.4 739.162 921.5 718.743 926C718.385 913.905 715.504 903.712 715.504 903.712L795.658 887.609Z" fill="#EC8E65"/>
<path d="M605.414 997.119C623.138 993.691 668.147 972.038 699.107 963.609C712.321 973.736 711.158 992.432 715.433 1001C719.708 1009.57 721.652 1015.43 758.576 1015.43C795.501 1015.43 792.003 1012.31 795.112 1011.53C798.222 1010.75 798.61 1022.44 796.278 1022.44C793.946 1022.44 633.399 1022.83 617.463 1022.44C601.527 1022.05 591.421 1000.62 605.414 997.119Z" fill="#CF7500"/>
<path d="M846.583 470.863L848.745 470.609L1068.78 487.66C943.441 512.912 698.917 567.626 693.305 584.461C686.29 605.504 658.229 827.49 663.14 894.83C600.705 899.039 532.121 885.711 511.777 866.772C537.44 786.526 544 511.753 638.882 497.48C707.96 487.089 798.089 476.539 846.583 470.863Z" fill="#F4BD34"/>
<path d="M514.363 858C543.5 878.5 614.399 893.2 649.999 884C654.999 884 656.499 705 677.499 576C677.499 567.2 905.166 510.869 1019 483.803" stroke="#FDF2D6" stroke-width="3"/>
<path d="M693.305 584.46C686.29 605.504 658.229 827.49 663.14 894.829C645.17 896.041 626.691 895.799 609 894.39C620.953 798.926 641.387 641.999 654 573C666.613 504 764 507 938 477.525L1068.78 487.659C943.441 512.912 698.917 567.625 693.305 584.46Z" fill="#D79B16"/>
<path d="M818.777 81.7342C826.621 129.26 853.652 216.382 902.26 170.807C978.297 99.5143 885.563 13.0026 818.777 81.7342Z" fill="#F1B09B"/>
<path d="M826.906 117.5C823.226 104.883 820.525 92.3254 818.777 81.7342C879.232 19.5183 960.948 84.507 919.5 150.266C911 133.033 922 125.5 925.5 114C929 102.5 917 92.5 912.5 99C908 105.5 918.5 122 912.5 122C892.5 123.5 892 93.5 880.5 101C856.5 118.6 834.771 119.333 826.906 117.5Z" fill="#EC8E65"/>
<path d="M1041.91 680.432C1146.83 649.036 1116.42 544.944 1088.6 496.822C1075.04 493.085 1029.43 485.609 951.442 485.609C706.678 506.633 672.572 531.862 662.753 586.525C652.934 641.187 622.777 887.869 622.777 923.609C662 934.5 767 898.381 803.565 898.381C809.176 852.408 801.843 726.918 790.388 669.92C862.157 681.833 982.5 690 1041.91 680.432Z" fill="#F4BD34"/>
<path d="M623.211 913C663.5 922.5 757 885.5 792.499 889.5C800.945 890.452 786.999 704.5 778.499 663C776.246 652 1073.5 709 1078 503.5" stroke="#FDF2D6" stroke-width="3"/>
<path d="M750.5 615.5C760.1 643.9 781.092 663.613 790.388 669.92C791.048 673.206 791.695 676.719 792.326 680.432C778.384 666.955 750.5 635.1 750.5 615.5Z" fill="#D79B16"/>
<path d="M1088 497C1074.44 493.262 1029.43 485.609 951.442 485.609C944.283 486.224 937.304 486.843 930.5 487.466C987 496.822 1084.5 526 1097.02 511C1094.6 505.887 1090.49 501.308 1088 497Z" fill="#D79B16"/>
<path d="M609.968 395.345C624.906 403.582 641.952 404.787 649 403.676V437H556.298C543.288 403.676 588.825 383.688 609.968 395.345Z" fill="#F9DB97"/>
<path d="M753.217 369.412C766.693 279.865 807.305 227.49 830 210C843.804 278.327 840.208 403.508 836.898 433.684C836.278 439.342 825.078 435.051 635.777 435.051V372.91C671.574 366.614 752.201 376.161 753.217 369.412Z" fill="#F4BD34"/>
<path d="M829.777 210.271C835.368 204.099 847.909 200.669 853.5 199.5C855.83 220.775 874.5 254.352 898.755 250.458C920 247.047 947.11 214.672 950.5 188C965.597 186.316 995.422 194.607 1005.21 199.049C1005.21 199.049 1064.99 419.008 1089.78 499.289C1066.87 523.845 923.682 468.593 829.777 473.338C837.001 350 818 291 829.777 210.271Z" fill="#F4BD34"/>
<path d="M829.777 473.338C923.682 468.593 1066.87 523.845 1089.78 499.289" stroke="#FDF2D6" stroke-width="2"/>
<path d="M847 201.166C851.17 221.958 864.5 263.711 898.755 258C938 251.458 951.5 215.133 957 187.816" stroke="#FDF2D6" stroke-width="2"/>
<path d="M835.5 359C835.5 352.2 829.494 278.833 826.491 243C822.958 305.681 834.816 361.802 830.514 459C833.01 456 835.5 449.472 835.5 445V359Z" fill="#D79B16"/>
<path d="M976 300.5C948 236.5 983.805 206.199 1005.21 199.049C1005.21 199.049 1042.5 336.266 1070.39 433.5H849.5C849 431 848 425.3 848 422.5C850.5 383.5 900 375 912 382.5C924 390 944 395 944 393.5C944 392 939.5 379.5 944 375.5C953.5 368 1009 370.5 1005.21 363C1001.41 355.5 999.5 352.5 976 300.5Z" fill="#D79B16"/>
<g filter="url(#filter0_d_3_1762)">
<path d="M916.572 386.94C934.34 396.641 954.617 398.06 963 396.752V436H852.734C837.258 396.752 891.423 373.21 916.572 386.94Z" fill="#F1B09B"/>
</g>
<path d="M916.572 386.94C934.34 396.641 954.617 398.06 963 396.752V436H951.5C949 425.167 944 403.2 944 402C944 400.5 929.644 399.807 916.572 391.5C903.5 383.193 845.967 381.5 852.734 436C837.258 396.752 891.423 373.21 916.572 386.94Z" fill="#EC8E65"/>
<path d="M1133.78 424.31C1121.97 304.748 1031.69 208.422 1005 199C912.257 238.808 1037.52 366.7 1022.06 371.589C1009.7 375.499 965.387 375.791 944.777 384.87C946.651 392.087 950.941 413.093 956 436C1118.11 436 1133.78 442.467 1133.78 424.31Z" fill="#F4BD34"/>
<path d="M956 381.201L967.5 436.011" stroke="white" stroke-width="2"/>
<path d="M802.969 94.4226C794.3 55.9901 823.734 46.866 840.954 47.3418C845.922 34.5659 865.127 20.4689 877.753 21.5282C907.597 24.0319 917.343 46.1736 920.618 55.9908C959.888 75.6071 940.625 114.505 932.601 124.885C931.998 127.1 927.951 147.001 925.501 156C920.501 149.5 919.609 143.842 918.449 139.363C917 133.763 923.857 130.426 928.193 114.505C932.528 98.5842 917.173 92.1721 910.631 97.0825C904.089 101.993 916.366 122.438 909.444 120.553C890.628 113.198 895.21 85.4481 874.2 99.8023C844.055 120.398 808.687 119.771 802.969 94.4226Z" fill="#6F4E33"/>
<path d="M874.199 99.803C844.054 120.398 808.686 119.772 802.968 94.4233C799.772 80.2547 801.755 70.0694 806.395 62.88C802.828 107.426 850.111 106.056 874.199 99.803Z" fill="#5C4036"/>
<path d="M793.5 688.5L791 672.5C1022.19 672.5 1010.53 654.749 1020.97 622.028C1052.25 523.928 1081.8 487.142 1154.81 476.631C1193.75 471.025 1222.35 460.281 1231.78 455.609C1194.91 694.808 1126.81 688.594 1095.71 688.594C1069.29 688.594 983.223 688.5 793.5 688.5Z" fill="#F0A500"/>
<path d="M740.777 424H888.777V436.609H740.777V424Z" fill="#FDF2D6"/>
<path d="M741 432H889V437H741V432Z" fill="#CF7500"/>
<path d="M741 424H889V428H741V424Z" fill="#CF7500"/>
<path d="M506.925 266.556C506.33 263.472 508.693 260.609 511.834 260.609H732.699C735.096 260.609 737.155 262.309 737.609 264.662L769.63 430.662C770.225 433.747 767.862 436.609 764.721 436.609H543.855C541.459 436.609 539.4 434.909 538.946 432.556L506.925 266.556Z" fill="#FDF2D6"/>
<path d="M541.63 436.609H767.986C769.434 436.609 770.523 435.29 770.249 433.868C770.039 432.784 769.09 432 767.986 432H541.63C540.182 432 539.093 433.319 539.367 434.741C539.576 435.826 540.526 436.609 541.63 436.609Z" fill="#CF7500"/>
<path d="M769.5 428L737.616 264.652C737.158 262.304 735.101 260.609 732.709 260.609H728L761 428H769.5Z" fill="#CF7500"/>
<ellipse cx="626.106" cy="342.26" rx="8.5" ry="14.5" transform="rotate(-10.1693 626.106 342.26)" fill="#CF7500"/>
<path d="M933 436C929.255 422.896 914.651 397.866 886.191 402.584C857.732 407.301 846.248 426.827 845 436L933 436Z" fill="#F0A500"/>
<path d="M933.001 436C929.257 422.896 914.652 397.866 886.193 402.584C878.639 403.836 872.28 406.132 866.992 409C883.829 404.333 918.401 403.2 922.001 436L933.001 436Z" fill="#CF7500"/>
<rect x="246.5" y="436.645" width="1013.78" height="21.5418" rx="10.7709" fill="#F4F4F4" stroke="#FDF2D6"/>
<path d="M272.585 1022.73L363.032 448.049H389.567L278.973 1022.73H272.585Z" fill="#F4F4F4" stroke="#FDF2D6"/>
<path d="M1233.74 1022.18L1143.29 447.5H1116.75L1227.35 1022.18H1233.74Z" fill="#F4F4F4" stroke="#FDF2D6"/>
<rect x="245.03" y="10.3164" width="271.935" height="231.364" fill="#FDF2D6" stroke="#F4F4F4"/>
<rect x="233.5" y="0.5" width="295" height="251" stroke="#F4F4F4"/>
<path d="M329.626 165.465L246.453 240.545H515.544L412.8 134.182L351.643 198.834L329.626 165.465Z" fill="#F0A500"/>
<ellipse cx="312.767" cy="96.5463" rx="33.6364" ry="29.4545" fill="#F0A500"/>
<path d="M399.745 387.281C391.886 376.554 377.234 348.916 381.493 324.181C384.913 304.317 385.619 295.875 385.502 293.102C385.43 292.716 385.361 292.348 385.295 292C385.395 292.083 385.473 292.422 385.502 293.102C387.075 301.588 389.858 318.941 389.858 328.598C389.858 341.218 403.547 362.672 407.349 387.281H399.745Z" fill="#CF7500"/>
<path d="M376.928 367.089C384.229 372.642 389.096 382.864 390.617 387.281H397.461C396.701 380.34 388.335 363.934 380.73 360.148C374.646 357.119 368.056 348.369 365.521 344.373C366.281 349.631 369.627 361.536 376.928 367.089Z" fill="#CF7500"/>
<path d="M394.42 322.92C390.769 339.578 395.941 373.189 398.983 387.913H406.586C411.909 367.09 405.065 339.957 405.065 327.968C405.065 318.377 399.995 302.938 397.46 296.418C397.967 298.311 398.07 306.262 394.42 322.92Z" fill="#F0A500"/>
<path d="M377.689 353.838C388.64 363.429 395.434 380.129 397.462 387.28H404.306C405.827 377.815 395.941 356.362 385.294 348.79C376.776 342.732 367.549 326.915 364 319.764C364 327.125 366.738 344.246 377.689 353.838Z" fill="#F0A500"/>
<path d="M411.911 355.73C403.393 364.817 402.785 378.867 403.545 384.756H406.584C408.105 378.446 417.992 364.564 424.836 354.468C431.681 344.372 430.92 324.811 430.92 312.191C430.92 322.287 422.558 344.372 411.911 355.73Z" fill="#F0A500"/>
<path d="M399.745 386.649C396.957 377.184 393.509 355.226 402.027 343.111C412.595 328.079 419.413 304.345 418.771 297.823C418.766 297.775 418.76 297.727 418.755 297.679C418.761 297.726 418.766 297.774 418.771 297.823C420.281 311.678 421.01 328.665 413.432 348.159C407.348 363.807 405.827 380.339 405.827 386.649H399.745Z" fill="#CF7500"/>
<path d="M429.402 360.779C421.493 366.836 413.938 379.708 411.15 385.387H404.305C403.545 383.494 415.713 362.041 423.318 355.731C430.923 349.421 438.528 333.015 441.57 324.181C443.091 331.122 440.936 351.945 429.402 360.779Z" fill="#CF7500"/>
<path d="M432.444 382.863H368.562L378.448 435.867H421.797L432.444 382.863Z" fill="#F4BD34"/>
<path d="M369.8 389.5H421.797L413 435.867M370.733 394.5H415.5L408 435.867" stroke="#D79B16"/>
<path d="M23 1023H1333" stroke="#F4F4F4"/>
<path d="M68.5002 598.5C51.3335 581.333 18.4002 532.4 24.0002 474C35.5 491.5 68.5002 554.5 68.5002 598.5Z" fill="#CF7500"/>
<path d="M103 674C103 638 108.3 562.4 129.5 548C130.5 571 144.5 615.5 103 674Z" fill="#CF7500"/>
<path d="M135.501 721.5C132.501 696.667 134.701 636.5 167.501 594.5C172.5 609 188.002 665 135.501 721.5Z" fill="#CF7500"/>
<path d="M151.5 763C155.167 740.833 172.9 686 214.5 644C214.5 662.5 201 750.5 151.5 763Z" fill="#CF7500"/>
<path d="M135 721.501C112.5 704.501 55.4 671.601 7 676.001C28.5 696 55.5 725.001 135 721.501Z" fill="#CF7500"/>
<path d="M151.5 763.999C135 751.666 85.4 730.299 19 743.499C54.5 761 101.5 787.999 151.5 763.999Z" fill="#CF7500"/>
<path d="M103 674.5C72.5 662.667 9.2 630.8 0 598C24.5 603 55.5 613.5 103 674.5Z" fill="#CF7500"/>
<path d="M227.001 667C226.834 650.667 230.901 614.7 248.501 601.5C251.5 616.5 245.502 653 227.001 667Z" fill="#CF7500"/>
<path d="M225.5 668.5C228.667 658.833 241.3 639 266.5 637C258 655.5 248.5 664 225.5 668.5Z" fill="#CF7500"/>
<path d="M216 789.5V790C226.999 761 222 728.5 217 715.5C202.2 745.9 210.166 777.5 216 789.5Z" fill="#CF7500"/>
<path d="M218 789.501C224.333 783.834 247 774.501 287 782.501C277 789.501 247.5 803.502 218 789.501Z" fill="#CF7500"/>
<path d="M235.5 764C234.5 748.333 237.2 713.2 256 698C258 712.5 255.499 731.5 235.5 764Z" fill="#CF7500"/>
<path d="M238 764C252.667 758.333 286.4 748.5 304 754.5C293.5 761 275 776 238 764Z" fill="#CF7500"/>
<path d="M266 731.5C273.5 719.167 295.5 693 323.5 687C314.5 699 292.5 726.5 266 731.5Z" fill="#CF7500"/>
<path d="M198 806.001C213.5 804.167 249.6 803.501 270 815.501C260 820 216.5 828.001 198 806.001Z" fill="#CF7500"/>
<path d="M197.999 806C189.332 800.333 174.599 778.2 184.999 735C193.5 752 204.998 779 197.999 806Z" fill="#CF7500"/>
<path d="M154.5 835.5C168.667 811.5 198.8 753 206 711C212.8 685.4 223.5 670 228 665.5" stroke="#F0A500" stroke-width="2"/>
<path d="M164 836C163.667 804.333 151.4 728.1 105 676.5C62.5 632 76.5 601.5 62 579.5" stroke="#F0A500" stroke-width="2"/>
<path d="M161.5 825.5C177.833 820.167 216 800 238 762C254.8 736 276.333 722.5 285 719" stroke="#F0A500" stroke-width="2"/>
<path d="M199 806.5C199.5 806.5 249 818 270 815.5" stroke="#F0A500"/>
<path d="M219 789C221 789.5 261 791 286.5 782.5" stroke="#F0A500"/>
<path d="M239 764C256.5 762.667 294 758.9 304 754.5" stroke="#F0A500"/>
<path d="M267 731C274.667 725 296.5 707.9 322.5 687.5" stroke="#F0A500"/>
<path d="M236 763.5C239.833 746.167 249.1 708.9 255.5 698.5" stroke="#F0A500"/>
<path d="M215.998 788.5C214.831 768.167 213.398 725.2 216.998 716" stroke="#F0A500"/>
<path d="M198.001 805.5C193.167 787 183.701 747 184.501 735" stroke="#F0A500"/>
<path d="M152 763C170.333 735.167 208.5 672.5 214.5 644.5" stroke="#F0A500"/>
<path d="M135.5 721C145.333 700.5 165.4 646.6 167 595" stroke="#F0A500"/>
<path d="M103.5 673.5C109.5 641.833 123.2 572.4 130 548" stroke="#F0A500"/>
<path d="M68.9983 597.5C52.3316 564.167 20.0983 492.9 24.4983 474.5" stroke="#F0A500"/>
<path d="M102 673C73.1667 652.667 12.5 609.3 0.5 598.5" stroke="#F0A500"/>
<path d="M135 720.5C104.667 711 36.6 688.8 7 676" stroke="#F0A500"/>
<path d="M151.5 763.5C118.5 762.667 45.8 757.5 19 743.5" stroke="#F0A500"/>
<path d="M228 665C233.167 647 244.5 609.3 248.5 602.5" stroke="#F0A500"/>
<path d="M226 667.5C237.5 658.667 261.6 640.3 266 637.5" stroke="#F0A500"/>
<path d="M241 825H90.0636C88.8467 851.915 104.796 940 163.674 940C222.552 940 238.136 860.479 241 825Z" fill="#F0A500"/>
<path d="M209.5 825C207 853.19 190.5 914.962 144.5 936.534M200.5 825C194.833 855.344 173.5 918.978 133.5 930.765" stroke="#CF7500"/>
<path d="M164 940C222.629 940 238.148 860.479 241 825H222.704C223.901 849.876 213.837 907.702 164 940Z" fill="#CF7500"/>
<path d="M262 1023L243.651 894.5M66 1023L84.3487 894.5M86.9189 876.5L88.5394 865.152C88.9615 862.196 91.4931 860 94.4791 860H233.521C236.507 860 239.039 862.196 239.461 865.152L241.081 876.5M86.9189 876.5H241.081M86.9189 876.5L84.3487 894.5M241.081 876.5L243.651 894.5M84.3487 894.5H243.651" stroke="#F4F4F4" stroke-width="3"/>
<defs>
<filter id="filter0_d_3_1762" x="846" y="383" width="121" height="61" filterUnits="userSpaceOnUse" color-interpolation-filters="sRGB">
<feFlood flood-opacity="0" result="BackgroundImageFix"/>
<feColorMatrix in="SourceAlpha" type="matrix" values="0 0 0 0 0 0 0 0 0 0 0 0 0 0 0 0 0 0 127 0" result="hardAlpha"/>
<feOffset dy="4"/>
<feGaussianBlur stdDeviation="2"/>
<feComposite in2="hardAlpha" operator="out"/>
<feColorMatrix type="matrix" values="0 0 0 0 0 0 0 0 0 0 0 0 0 0 0 0 0 0 0.25 0"/>
<feBlend mode="normal" in2="BackgroundImageFix" result="effect1_dropShadow_3_1762"/>
<feBlend mode="normal" in="SourceGraphic" in2="effect1_dropShadow_3_1762" result="shape"/>
</filter>
</defs>
</svg>
