<svg xmlns="http://www.w3.org/2000/svg" version="1.1" xmlns:xlink="http://www.w3.org/1999/xlink" xmlns:svgjs="http://svgjs.com/svgjs" width="1024" height="560" preserveAspectRatio="none" viewBox="0 0 1024 560"><g mask="url(&quot;#SvgjsMask1030&quot;)" fill="none"><rect width="1024" height="560" x="0" y="0" fill="rgba(26, 28, 32, 1)"></rect><path d="M114.73,229.227C160.536,230.47,209.597,222.324,234.762,184.03C262.094,142.439,263.13,86.436,235.97,44.732C210.756,6.016,160.93,-0.82,114.73,-0.278C69.775,0.25,21.831,9.2,-1.679,47.521C-26.056,87.256,-19.672,138.555,5.475,177.808C28.746,214.133,71.606,228.057,114.73,229.227" fill="rgba(187, 202, 250, 0.84)" class="triangle-float2"></path><path d="M139.907,297.339C192.806,298.316,233.929,255.213,258.148,208.173C280.207,165.327,279.601,114.9,255.247,73.315C231.161,32.187,187.555,7.409,139.907,6.274C90.095,5.088,39.023,24.132,14.642,67.585C-9.327,110.304,5.55,160.933,28.998,203.94C53.795,249.421,88.114,296.382,139.907,297.339" fill="rgba(187, 202, 250, 0.84)" class="triangle-float3"></path><path d="M125.018,256.42C172.185,254.676,214.494,231.114,240.038,191.425C268.156,147.736,287.162,91.359,259.592,47.322C232.997,4.842,175.055,4.86,125.018,7.707C81.242,10.198,39.203,24.976,14.592,61.264C-13.628,102.874,-30.506,156.757,-5.746,200.515C19.275,244.735,74.245,258.298,125.018,256.42" fill="rgba(187, 202, 250, 0.84)" class="triangle-float2"></path><path d="M1055.475,302.95C1109.909,302.936,1152.486,262.335,1180.253,215.516C1208.728,167.504,1228.003,108.315,1199.304,60.436C1171.143,13.455,1110.247,7.839,1055.475,7.348C999.487,6.846,935.904,9.799,907.106,57.815C877.796,106.684,901.078,166.83,930.585,215.581C958.781,262.166,1001.022,302.964,1055.475,302.95" fill="rgba(187, 202, 250, 0.84)" class="triangle-float1"></path><path d="M959.714,127.446C986.997,128.288,1009.622,108.033,1022.56,83.998C1034.793,61.272,1035.184,33.94,1021.986,11.761C1009.078,-9.931,984.936,-20.608,959.714,-21.614C932.292,-22.708,901.495,-17.583,888.196,6.423C875.141,29.989,889.541,57.121,903.247,80.315C916.615,102.937,933.45,126.635,959.714,127.446" fill="rgba(187, 202, 250, 0.84)" class="triangle-float1"></path><path d="M993.76,170.297C1031.739,173.485,1074.568,172.268,1096.331,140.979C1120.532,106.185,1119.844,57.831,1096.665,22.348C1075.206,-10.503,1032.982,-17.205,993.76,-16.041C957.04,-14.951,918.348,-4.18,900.918,28.158C884.113,59.336,897.861,96.291,917.23,125.945C934.511,152.402,962.27,167.654,993.76,170.297" fill="rgba(187, 202, 250, 0.84)" class="triangle-float3"></path><path d="M38.469,548.295C63.232,549.14,89.951,544.766,103.412,523.964C117.849,501.655,116.689,471.959,102.341,449.593C88.975,428.757,63.209,421.865,38.469,422.728C15.419,423.532,-6.335,433.972,-18.121,453.797C-30.169,474.063,-31.341,499.554,-19.228,519.781C-7.415,539.507,15.489,547.511,38.469,548.295" fill="rgba(187, 202, 250, 0.84)" class="triangle-float3"></path><path d="M117.208,693.29C162.899,694.935,204.956,668.662,227.946,629.142C251.069,589.393,251.656,540.676,229.398,500.435C206.393,458.844,164.725,427.851,117.208,428.936C71.21,429.986,34.364,464.327,13.551,505.361C-5.265,542.458,-0.623,585.216,19.467,621.639C40.378,659.551,73.939,691.733,117.208,693.29" fill="rgba(187, 202, 250, 0.84)" class="triangle-float3"></path><path d="M127.526,714.655C175.46,713.434,216.963,682.471,238.972,639.87C259.275,600.571,251.978,554.752,229.96,516.387C207.826,477.821,171.907,448.431,127.526,445.688C77.96,442.624,26.342,459.778,0.533,502.206C-26.148,546.067,-20.549,601.744,5.792,645.81C31.428,688.697,77.577,715.927,127.526,714.655" fill="rgba(187, 202, 250, 0.84)" class="triangle-float3"></path><path d="M933.789,512.424C952.128,513.246,973.341,513.801,983.196,498.314C993.493,482.133,986.593,461.445,976.676,445.029C967.164,429.282,952.178,415.993,933.789,416.525C916.084,417.037,903.462,431.834,894.993,447.39C886.974,462.121,882.908,479.8,891.501,494.204C899.929,508.332,917.354,511.687,933.789,512.424" fill="rgba(187, 202, 250, 0.84)" class="triangle-float3"></path><path d="M992.025,632.633C1031.357,634.628,1071.038,619.099,1091.715,585.581C1113.366,550.485,1112.957,505.821,1092.256,470.157C1071.636,434.633,1033.077,412.455,992.025,413.837C953.098,415.147,920.658,441.899,902.837,476.532C886.506,508.271,890.73,545.293,908.437,576.285C926.304,607.556,956.056,630.809,992.025,632.633" fill="rgba(187, 202, 250, 0.84)" class="triangle-float3"></path><path d="M943.112,546.127C965.958,547.171,984.311,529.304,995.523,509.371C1006.484,489.884,1009.49,466.593,998.933,446.884C987.786,426.074,966.688,410.316,943.112,411.525C921.026,412.658,905.951,432.197,896.401,452.144C888.251,469.167,889.991,488.031,898.391,504.932C908.059,524.385,921.412,545.135,943.112,546.127" fill="rgba(187, 202, 250, 0.84)" class="triangle-float1"></path></g><defs><mask id="SvgjsMask1030"><rect width="1024" height="560" fill="#ffffff"></rect></mask><style>
            @keyframes float1 {
                0%{transform: translate(0, 0)}
                50%{transform: translate(-10px, 0)}
                100%{transform: translate(0, 0)}
            }

            .triangle-float1 {
                animation: float1 5s infinite;
            }

            @keyframes float2 {
                0%{transform: translate(0, 0)}
                50%{transform: translate(-5px, -5px)}
                100%{transform: translate(0, 0)}
            }

            .triangle-float2 {
                animation: float2 4s infinite;
            }

            @keyframes float3 {
                0%{transform: translate(0, 0)}
                50%{transform: translate(0, -10px)}
                100%{transform: translate(0, 0)}
            }

            .triangle-float3 {
                animation: float3 6s infinite;
            }
        </style></defs></svg>