<svg xmlns="http://www.w3.org/2000/svg" version="1.1" xmlns:xlink="http://www.w3.org/1999/xlink" xmlns:svgjs="http://svgjs.com/svgjs" width="768" height="800" preserveAspectRatio="none" viewBox="0 0 768 800"><g mask="url(&quot;#SvgjsMask1037&quot;)" fill="none"><rect width="768" height="800" x="0" y="0" fill="rgba(26, 28, 32, 1)"></rect><path d="M114.692,258.865C170.199,258.847,232.009,246.43,257.195,196.966C281.094,150.029,245.989,99.693,218.67,54.661C192.87,12.134,164.426,-37.069,114.692,-37.93C64.063,-38.806,30.565,7.665,4.287,50.95C-23.454,96.645,-53.037,149.843,-27.967,197.056C-1.917,246.114,59.147,258.883,114.692,258.865" fill="rgba(187, 202, 250, 0.84)" class="triangle-float2"></path><path d="M107.391,247.627C156.383,246.566,198.521,216.587,223.321,174.323C248.463,131.478,257.472,78.094,231.845,35.538C206.862,-5.949,155.818,-18.621,107.391,-18.189C59.881,-17.765,12.112,-2.436,-13.271,37.727C-40.351,80.575,-42.835,135.595,-17.573,179.539C7.766,223.617,56.561,248.728,107.391,247.627" fill="rgba(187, 202, 250, 0.84)" class="triangle-float1"></path><path d="M109.817,256.097C161.384,257.026,207.908,225.998,233.103,180.996C257.723,137.021,254.827,84.267,230.832,39.948C205.513,-6.817,162.956,-44.656,109.817,-46.72C53.326,-48.914,-2.631,-20.318,-28.652,29.872C-53.08,76.989,-33.717,131.423,-6.01,176.69C20.183,219.482,59.653,255.194,109.817,256.097" fill="rgba(187, 202, 250, 0.84)" class="triangle-float1"></path><path d="M718.527,242.225C765.445,239.846,801.82,206.46,825.657,165.979C849.939,124.742,863.797,75.459,841.726,32.998C818.12,-12.417,769.705,-39.322,718.527,-40.127C665.898,-40.955,615.041,-16.399,588.428,29.014C561.533,74.909,563.055,132.482,590.763,177.891C617.383,221.517,667.487,244.813,718.527,242.225" fill="rgba(187, 202, 250, 0.84)" class="triangle-float2"></path><path d="M792.284,395.554C866.255,394.011,928.963,341.963,960.791,275.172C988.715,216.573,969.916,150.229,935.382,95.266C903.423,44.401,852.293,9.738,792.284,6.978C726.812,3.967,660.422,26.2,624.413,80.963C584.776,141.245,577.175,218.816,611.14,282.467C647.057,349.776,716.008,397.145,792.284,395.554" fill="rgba(187, 202, 250, 0.84)" class="triangle-float3"></path><path d="M808.945,390.686C882.937,391.179,956.14,364.848,996.499,302.83C1040.726,234.868,1057.09,144.811,1013.403,76.501C971.992,11.751,885.792,8.143,808.945,9.567C735.495,10.928,656.372,21.693,617.202,83.842C575.926,149.333,584.647,234.71,625.67,300.359C664.354,362.264,735.949,390.2,808.945,390.686" fill="rgba(187, 202, 250, 0.84)" class="triangle-float3"></path><path d="M189.429,1059.859C263.014,1057.836,311.52,991.286,346.519,926.525C379.34,865.794,400.334,793.774,365.414,734.224C330.8,675.196,257.822,656.439,189.429,658.635C125.318,660.693,65.94,690.509,31.987,744.93C-4.186,802.909,-13.924,874.468,16.634,935.593C50.636,1003.607,113.418,1061.948,189.429,1059.859" fill="rgba(187, 202, 250, 0.84)" class="triangle-float2"></path><path d="M110.309,881.658C156.524,879.851,200.275,861.944,225.952,823.476C255.007,779.947,273.648,722.804,246.004,678.366C219.265,635.382,160.819,634.207,110.309,637.577C66.906,640.473,27.118,658.578,2.728,694.597C-25.474,736.247,-47.212,789.573,-22.135,833.176C2.986,876.856,59.959,883.627,110.309,881.658" fill="rgba(187, 202, 250, 0.84)" class="triangle-float2"></path><path d="M85.891,838.965C125.368,840.321,163.685,822.785,184.684,789.329C207.063,753.674,210.035,709.159,190.896,671.665C169.853,630.441,132.1,593.147,85.891,595.789C42.287,598.282,18.344,643.044,-0.19,682.592C-15.403,715.053,-19.095,751.518,-1.807,782.923C16.124,815.496,48.731,837.688,85.891,838.965" fill="rgba(187, 202, 250, 0.84)" class="triangle-float2"></path><path d="M788.947,1026.882C860.257,1025.604,924.488,981.359,955.798,917.278C983.912,859.739,959.114,796.6,929.108,740.025C896.259,678.091,859.053,602.733,788.947,602.692C718.81,602.651,682.471,678.499,648.505,739.863C616.099,798.409,581.991,863.347,611.402,923.453C643.667,989.391,715.55,1028.198,788.947,1026.882" fill="rgba(187, 202, 250, 0.84)" class="triangle-float2"></path><path d="M732.594,898.834C778.552,895.5,815.627,865.738,839.094,826.082C863.096,785.523,873.81,737.34,853.26,694.927C829.935,646.788,786.056,608.064,732.594,606.284C676.406,604.413,625.266,637.712,597.155,686.398C569.043,735.087,565.256,796.35,595.48,843.757C623.86,888.271,679.941,902.654,732.594,898.834" fill="rgba(187, 202, 250, 0.84)" class="triangle-float3"></path><path d="M718.743,896.236C770.309,898.38,817.631,867.427,842.938,822.447C867.767,778.316,864.386,725.113,839.984,680.745C814.579,634.553,771.455,595.948,718.743,596.637C666.935,597.314,625.941,637.452,602.87,683.844C582.31,725.187,589.125,772.279,611.238,812.812C634.521,855.49,670.169,894.216,718.743,896.236" fill="rgba(187, 202, 250, 0.84)" class="triangle-float2"></path></g><defs><mask id="SvgjsMask1037"><rect width="768" height="800" fill="#ffffff"></rect></mask><style>
            @keyframes float1 {
                0%{transform: translate(0, 0)}
                50%{transform: translate(-10px, 0)}
                100%{transform: translate(0, 0)}
            }

            .triangle-float1 {
                animation: float1 5s infinite;
            }

            @keyframes float2 {
                0%{transform: translate(0, 0)}
                50%{transform: translate(-5px, -5px)}
                100%{transform: translate(0, 0)}
            }

            .triangle-float2 {
                animation: float2 4s infinite;
            }

            @keyframes float3 {
                0%{transform: translate(0, 0)}
                50%{transform: translate(0, -10px)}
                100%{transform: translate(0, 0)}
            }

            .triangle-float3 {
                animation: float3 6s infinite;
            }
        </style></defs></svg>