<svg xmlns="http://www.w3.org/2000/svg" version="1.1" xmlns:xlink="http://www.w3.org/1999/xlink" xmlns:svgjs="http://svgjs.com/svgjs" width="425" height="800" preserveAspectRatio="none" viewBox="0 0 425 800"><g mask="url(&quot;#SvgjsMask1040&quot;)" fill="none"><rect width="425" height="800" x="0" y="0" fill="rgba(26, 28, 32, 1)"></rect><path d="M52.38,118.707C77.875,119.98,105.435,112.485,117.9,90.208C130.163,68.291,119.752,42.482,107.201,20.728C94.641,-1.041,77.503,-24.011,52.38,-23.351C27.899,-22.708,13.498,1.69,2.332,23.485C-7.59,42.853,-12.834,64.924,-2.71,84.186C8.096,104.746,29.182,117.549,52.38,118.707" fill="rgba(187, 202, 250, 0.84)" class="triangle-float1"></path><path d="M102.237,218.505C141.09,218.931,168.24,185.204,188.177,151.854C208.84,117.288,228.081,76.078,208.374,40.959C188.401,5.367,143.044,-1.977,102.237,-1.294C62.911,-0.636,20.951,9.902,2.08,44.411C-16.265,77.958,0.431,116.865,19.498,150.007C38.634,183.27,63.864,218.085,102.237,218.505" fill="rgba(187, 202, 250, 0.84)" class="triangle-float1"></path><path d="M53.36,118.301C76.288,117.174,96.243,104.61,108.394,85.134C121.411,64.269,128.226,38.516,116.685,16.799C104.536,-6.061,79.237,-19.189,53.36,-18.42C28.7,-17.687,8.872,-0.81,-3.763,20.38C-16.779,42.208,-24.718,69.093,-11.912,91.045C0.822,112.873,28.119,119.541,53.36,118.301" fill="rgba(187, 202, 250, 0.84)" class="triangle-float3"></path><path d="M437.816,191.054C472.448,191.737,505.135,176.566,524.671,147.962C547.307,114.818,562.169,72.353,542.951,37.117C523.152,0.815,479.112,-13.405,437.816,-11.286C400.159,-9.354,367.244,13.572,349.842,47.024C333.706,78.042,338.473,114.811,356.698,144.649C374.102,173.142,404.434,190.396,437.816,191.054" fill="rgba(187, 202, 250, 0.84)" class="triangle-float1"></path><path d="M384.551,103.333C405.231,103.512,423.122,90.694,433.869,73.025C445.113,54.539,450.471,31.477,439.654,12.738C428.836,-6.004,406.191,-12.356,384.551,-12.416C362.783,-12.476,339.635,-6.515,328.917,12.431C318.317,31.168,325.453,53.822,336.691,72.184C347.341,89.585,364.151,103.156,384.551,103.333" fill="rgba(187, 202, 250, 0.84)" class="triangle-float3"></path><path d="M435.948,197.21C475.283,196.873,516.46,187.818,537.451,154.551C559.687,119.31,557.593,73.83,536.455,37.92C515.621,2.526,477.004,-19.003,435.948,-17.886C396.681,-16.818,364.705,9.464,344.488,43.144C323.54,78.044,310.604,121.318,331.382,156.319C351.858,190.812,395.836,197.554,435.948,197.21" fill="rgba(187, 202, 250, 0.84)" class="triangle-float3"></path><path d="M68.47,856.689C95.351,855.045,121.221,845.004,135.478,822.157C150.617,797.896,152.588,767.859,139.892,742.235C125.563,713.314,100.716,685.516,68.47,686.913C37.545,688.252,22.424,721.143,7.016,747.99C-8.286,774.651,-29.539,804.563,-14.41,831.322C0.83,858.278,37.562,858.579,68.47,856.689" fill="rgba(187, 202, 250, 0.84)" class="triangle-float1"></path><path d="M24.902,791.631C41.851,791.479,53.37,775.865,60.828,760.644C67.297,747.442,66.995,732.557,60.247,719.495C52.813,705.106,41.079,691.887,24.902,691.107C7.585,690.272,-8.795,700.443,-16.889,715.774C-24.523,730.234,-20.045,746.975,-12.155,761.296C-3.899,776.281,7.794,791.784,24.902,791.631" fill="rgba(187, 202, 250, 0.84)" class="triangle-float1"></path><path d="M79.095,891.602C113.329,893.163,143.626,870.924,160.722,841.223C177.776,811.594,180.564,774.984,163.152,745.565C146.032,716.64,112.707,703.238,79.095,703.307C45.618,703.376,11.356,716.353,-4.363,745.91C-19.374,774.135,-6.473,806.585,9.417,834.324C25.435,862.286,46.903,890.134,79.095,891.602" fill="rgba(187, 202, 250, 0.84)" class="triangle-float2"></path><path d="M402.389,845.379C427.699,845.848,452.844,835.743,465.96,814.092C479.525,791.701,478.979,763.398,465.735,740.816C452.644,718.495,428.252,706.54,402.389,705.695C374.782,704.793,344.977,712.348,331.447,736.43C318.108,760.172,327.912,788.987,342.772,811.808C356.11,832.292,377.949,844.926,402.389,845.379" fill="rgba(187, 202, 250, 0.84)" class="triangle-float2"></path><path d="M360.375,780.486C375.607,779.757,386.911,768.3,394.798,755.249C403.053,741.589,410.305,724.978,402.248,711.2C394.238,697.501,376.223,695.555,360.375,696.379C346.212,697.115,333.156,703.307,325.421,715.194C316.844,728.375,312.306,744.979,319.728,758.843C327.493,773.347,343.942,781.273,360.375,780.486" fill="rgba(187, 202, 250, 0.84)" class="triangle-float3"></path><path d="M426.502,890.913C457.475,890.396,483.838,870.372,499.007,843.363C513.84,816.952,514.768,785.484,500.817,758.597C485.607,729.284,459.524,703.982,426.502,703.626C392.997,703.265,365.283,727.483,349.359,756.964C334.266,784.906,333.83,818.336,349.679,845.856C365.559,873.429,394.687,891.444,426.502,890.913" fill="rgba(187, 202, 250, 0.84)" class="triangle-float1"></path></g><defs><mask id="SvgjsMask1040"><rect width="425" height="800" fill="#ffffff"></rect></mask><style>
            @keyframes float1 {
                0%{transform: translate(0, 0)}
                50%{transform: translate(-10px, 0)}
                100%{transform: translate(0, 0)}
            }

            .triangle-float1 {
                animation: float1 5s infinite;
            }

            @keyframes float2 {
                0%{transform: translate(0, 0)}
                50%{transform: translate(-5px, -5px)}
                100%{transform: translate(0, 0)}
            }

            .triangle-float2 {
                animation: float2 4s infinite;
            }

            @keyframes float3 {
                0%{transform: translate(0, 0)}
                50%{transform: translate(0, -10px)}
                100%{transform: translate(0, 0)}
            }

            .triangle-float3 {
                animation: float3 6s infinite;
            }
        </style></defs></svg>